<svg width="538" height="439" viewBox="0 0 538 439" fill="none" xmlns="http://www.w3.org/2000/svg">
<path d="M74.7035 66.2329L76.7614 61.9391C94.1168 25.715 129.609 1.42912 169.353 0.0640479C174.472 -0.115817 179.597 0.0832813 184.687 0.659717C221.357 4.84181 255.274 28.9664 271.638 62.5224C281.258 82.2539 285.684 105.634 301.737 120.464C322.626 139.786 354.634 137.316 382.639 133.692C410.643 130.069 442.688 127.674 463.49 147.083C476.519 159.232 482.085 177.784 482.891 195.692C484.999 243.109 456.288 288.492 416.581 313.584C376.874 338.677 327.957 345.304 281.357 340.588C216.076 333.936 151.724 304.426 109.774 253.223C67.8233 202.021 51.2613 128.245 74.7035 66.2329Z" fill="#F5F5F5"/>
<ellipse cx="353.791" cy="54.0217" rx="45.1365" ry="45.184" fill="#F5F5F5"/>
<path d="M486.786 297.921C477.122 283.054 478.527 261.831 490.077 248.364C493.651 244.188 498.705 240.571 504.128 241.041C509.552 241.512 514.223 246.344 515.924 251.721C517.625 257.098 517.034 262.872 516.035 268.472C514.642 276.252 512.337 284.206 506.926 289.98C501.515 295.753 493.676 301.688 486.786 297.897" fill="#3ED0A3"/>
<path d="M492.123 369.408C488.563 360.543 491.045 350.383 498.286 344.184C500.504 342.362 503.413 340.95 506.187 341.706C508.96 342.461 510.92 345.361 511.302 348.284C511.531 351.25 511.036 354.227 509.86 356.957C508.43 360.835 506.507 364.725 503.229 367.216C499.95 369.706 495.34 372.035 492.135 369.458" fill="#3ED0A3"/>
<path d="M468.814 364.354C471.245 350.743 464.761 337.091 452.704 330.431C449.006 328.511 444.482 327.371 440.772 329.192C437.062 331.014 435.152 335.759 435.447 340.021C435.743 344.283 437.789 348.222 440.033 351.84C443.188 356.92 447.059 361.851 452.433 364.403C457.807 366.955 465.018 368.913 468.814 364.304" fill="#3ED0A3"/>
<path d="M470.49 328.721C475.125 313.718 467.273 295.518 454.195 286.895C450.14 284.231 445 282.36 440.464 284.107C435.928 285.854 433.142 291.082 433.007 296.075C432.871 301.068 434.769 305.888 436.964 310.36C440.033 316.642 443.952 322.837 449.918 326.467C455.884 330.097 465.535 333.665 470.49 328.746" fill="#3ED0A3"/>
<path d="M479.784 402.104C479.712 401.866 479.663 401.621 479.636 401.373C479.55 400.828 479.452 400.134 479.328 399.279C479.267 398.821 479.193 398.313 479.119 397.768C479.045 397.223 478.897 396.616 478.774 395.984C478.527 394.745 478.281 393.233 477.861 391.648C477.664 390.855 477.467 390.012 477.257 389.17L476.481 386.493C475.976 384.635 475.248 382.702 474.558 380.646C471.3 371.813 466.845 363.475 461.32 355.867C460.001 354.157 458.855 352.472 457.536 351.023L455.748 348.892L454.01 346.996C452.926 345.757 451.853 344.753 450.917 343.837L449.684 342.598L448.538 341.582L446.972 340.169C446.785 340.007 446.612 339.828 446.455 339.637C446.669 339.762 446.871 339.907 447.059 340.07L448.698 341.396L449.931 342.375L451.262 343.614C452.223 344.493 453.32 345.497 454.43 346.711C454.997 347.318 455.588 347.95 456.217 348.582L458.041 350.713C459.335 352.15 460.506 353.823 461.887 355.545C467.482 363.151 471.954 371.53 475.162 380.423C475.84 382.492 476.567 384.437 477.048 386.32C477.307 387.249 477.553 388.154 477.8 389.021C478.046 389.888 478.182 390.743 478.354 391.499C478.749 393.109 478.971 394.584 479.18 395.872C479.291 396.517 479.39 397.111 479.476 397.669C479.562 398.226 479.587 398.734 479.636 399.205C479.71 400.06 479.772 400.766 479.821 401.311C479.843 401.576 479.831 401.843 479.784 402.104Z" fill="#263238"/>
<path d="M479.451 404.805C479.436 404.702 479.436 404.598 479.451 404.495C479.451 404.272 479.451 403.975 479.451 403.628C479.525 402.81 479.624 401.708 479.76 400.295C479.821 399.564 479.908 398.759 479.994 397.892C480.08 397.025 480.08 396.046 480.129 395.017C480.216 392.948 480.413 390.607 480.339 388.005C480.339 386.704 480.339 385.341 480.339 383.929C480.339 382.516 480.191 381.042 480.117 379.518C480.018 376.458 479.612 373.224 479.242 369.817C477.348 355.012 473.099 340.61 466.657 327.16C465.116 324.1 463.699 321.164 462.133 318.55C461.369 317.224 460.679 315.923 459.927 314.721C459.175 313.52 458.423 312.392 457.733 311.302C456.377 309.084 454.947 307.226 453.764 305.528C453.16 304.698 452.618 303.905 452.088 303.199C451.558 302.493 451.04 301.886 450.584 301.316L448.513 298.689L447.983 297.996L447.823 297.748C447.823 297.748 447.909 297.748 448.032 297.946L448.612 298.603L450.769 301.155L452.322 303.013C452.864 303.707 453.431 304.5 454.047 305.318C455.28 306.99 456.722 308.836 458.103 311.054L460.334 314.474C461.11 315.713 461.813 316.952 462.589 318.277C464.192 320.904 465.622 323.84 467.187 326.95C473.714 340.431 477.982 354.902 479.821 369.78C480.166 373.2 480.561 376.458 480.647 379.531C480.647 381.055 480.832 382.529 480.832 383.954C480.832 385.378 480.832 386.741 480.832 388.042C480.832 390.656 480.647 392.998 480.536 395.067C480.462 396.108 480.425 397.062 480.339 397.954C480.253 398.846 480.142 399.626 480.043 400.357C479.871 401.757 479.723 402.835 479.624 403.678C479.624 404.037 479.538 404.31 479.501 404.545C479.464 404.78 479.451 404.805 479.451 404.805Z" fill="#263238"/>
<path d="M504.609 259.006C504.609 259.006 504.609 259.105 504.486 259.291L504.067 260.072L502.415 263.033C502.07 263.677 501.638 264.383 501.182 265.176C500.726 265.969 500.344 266.849 499.95 267.79L498.458 270.788C497.953 271.866 497.472 273.019 496.942 274.233C496.412 275.447 495.845 276.711 495.303 278.024C494.761 279.337 494.255 280.762 493.7 282.211L492.862 284.417C492.599 285.177 492.341 285.945 492.086 286.721L490.459 291.553C488.413 298.206 486.477 305.628 484.826 313.507C483.174 321.387 482.114 328.982 481.325 335.957C480.536 342.932 480.092 349.152 479.957 354.43C479.821 357.069 479.797 359.447 479.784 361.541C479.772 363.635 479.784 365.444 479.784 366.918C479.784 368.393 479.784 369.483 479.784 370.313V371.205C479.803 371.303 479.803 371.404 479.784 371.502C479.768 371.404 479.768 371.303 479.784 371.205L479.723 370.325C479.723 369.495 479.624 368.355 479.562 366.931C479.501 365.506 479.439 363.647 479.439 361.541C479.439 359.435 479.439 357.056 479.513 354.417C479.599 349.127 480.08 342.845 480.746 335.895C481.411 328.944 482.632 321.337 484.222 313.421C485.812 305.504 487.809 298.045 489.953 291.355C490.52 289.707 491.075 288.096 491.605 286.523L492.394 284.219L493.257 282.013L494.908 277.826C495.451 276.488 496.055 275.236 496.585 274.034C497.115 272.833 497.62 271.668 498.138 270.603C498.656 269.537 499.198 268.546 499.679 267.617L501.022 265.015C501.454 264.222 501.897 263.528 502.255 262.896L504.017 259.985L504.486 259.241C504.518 259.159 504.56 259.08 504.609 259.006Z" fill="#263238"/>
<path d="M501.33 350.205C501.035 350.835 500.689 351.44 500.295 352.014C499.592 353.154 498.619 354.826 497.485 356.969C496.351 359.113 495.093 361.628 493.787 364.515C492.48 367.401 491.322 370.709 490.237 374.166C489.246 377.446 488.423 380.775 487.772 384.14C487.192 387.249 486.786 390.074 486.539 392.453C486.292 394.832 486.157 396.764 486.108 398.102C486.106 398.8 486.048 399.496 485.935 400.184C485.863 399.493 485.839 398.797 485.861 398.102C485.861 396.752 485.861 394.807 486.095 392.416C486.315 389.603 486.677 386.804 487.18 384.028C487.82 380.632 488.643 377.274 489.645 373.968C490.67 370.672 491.88 367.437 493.269 364.279C494.408 361.706 495.676 359.192 497.065 356.746C498.298 354.665 499.297 353.03 500.073 351.915C500.44 351.308 500.861 350.736 501.33 350.205Z" fill="#263238"/>
<path d="M460.802 395.414H503.265L498.125 439H466.09L460.802 395.414Z" fill="#455A64"/>
<path d="M462.355 434.304L465.954 439H498.126L501.836 434.453L462.355 434.304Z" fill="#263238"/>
<path d="M501.614 408.237C501.614 408.41 492.801 408.547 481.892 408.547C470.984 408.547 462.17 408.41 462.17 408.237C462.17 408.064 470.984 407.915 481.892 407.915C492.801 407.915 501.614 408.064 501.614 408.237Z" fill="#FAFAFA"/>
<path d="M501.614 411.136C501.614 411.31 492.801 411.458 481.892 411.458C470.984 411.458 462.17 411.31 462.17 411.136C462.17 410.963 470.984 410.814 481.892 410.814C492.801 410.814 501.614 410.963 501.614 411.136Z" fill="#FAFAFA"/>
<path d="M501.047 414.01C501.047 414.184 492.542 414.32 482.052 414.32C471.563 414.32 463.058 414.184 463.058 414.01C463.058 413.837 471.563 413.688 482.052 413.688C492.542 413.688 501.047 413.775 501.047 414.01Z" fill="#FAFAFA"/>
<path d="M56.3478 392.138L36.6126 439L22.7087 438.876L28.8992 392.101L56.3478 392.138Z" fill="#263238"/>
<path d="M131.958 392.287L112.483 438.938L98.5793 438.814L104.658 392.237L131.958 392.287Z" fill="#263238"/>
<path d="M23.8973 111.092C31.5364 99.6241 182.176 97.9504 188.626 109.852L243.66 214.597L326.439 210.791C326.439 210.791 337.582 210.258 348.465 220.708C353.838 225.853 353.565 258.297 352.055 270.843C351.04 279.186 338.349 392.696 338.349 392.696L26.4602 392.064C26.4602 392.064 16.2706 122.534 23.8973 111.092Z" fill="#16284D"/>
<path d="M114.91 395.039C114.91 395.039 114.91 394.704 114.91 394.047C114.91 393.39 114.91 392.386 114.997 391.122C115.071 388.531 115.158 384.749 115.269 379.964C115.479 370.232 115.764 356.211 116.123 339.053L115.863 339.301L210.59 339.983L308.722 340.516L308.474 340.318C310.581 352.971 311.167 365.832 310.22 378.625C309.885 383.175 309.452 386.683 309.143 389.064C308.969 390.241 308.846 391.146 308.759 391.779C308.672 392.411 308.647 392.708 308.647 392.708C309.534 388.062 310.15 383.368 310.492 378.65C311.554 365.825 311.043 352.919 308.969 340.218V340.008H308.759L210.615 339.301L115.9 338.78H115.64V339.028C115.368 356.211 115.158 370.22 115.009 379.939C114.947 384.787 114.91 388.555 114.873 391.097C114.873 392.337 114.873 393.341 114.873 394.023C114.873 394.704 114.91 395.039 114.91 395.039Z" fill="#777C85"/>
<path d="M124.468 219.233H123.787C123.162 219.22 122.537 219.253 121.917 219.332C119.497 219.604 117.151 220.34 115.009 221.502C111.576 223.374 108.613 226.002 106.342 229.188C103.307 233.499 101.284 238.44 100.424 243.643C99.3913 250.027 98.9767 256.495 99.186 262.958C99.186 269.963 99.4336 277.525 99.9041 285.559C100.833 301.675 102.814 319.552 104.956 338.867V339.14H105.216L184.082 339.685L327.12 340.516H327.343V340.28C327.947 330.753 327.478 321.188 325.944 311.767C324.483 303.51 321.994 296.518 318.515 291.658C317.034 289.475 315.152 287.595 312.968 286.117L312.275 285.633L311.557 285.261L310.207 284.567C309.303 284.257 308.499 283.91 307.731 283.724L305.725 283.29C305.131 283.216 304.636 283.203 304.24 283.166H303.002C303.002 283.166 303.398 283.166 304.24 283.302C304.636 283.302 305.131 283.377 305.713 283.464L307.706 283.91C308.462 284.108 309.254 284.468 310.183 284.79L311.495 285.497L312.201 285.869L312.882 286.352C315.033 287.831 316.882 289.707 318.329 291.881C321.722 296.704 324.161 303.659 325.572 311.903C327.06 321.276 327.496 330.786 326.872 340.256L327.12 340.032L184.082 339.016L105.216 338.532L105.525 338.805C103.358 319.478 101.328 301.613 100.362 285.497C99.8793 277.476 99.6193 269.926 99.5946 262.909C99.3994 256.475 99.814 250.036 100.833 243.681C101.663 238.52 103.644 233.614 106.627 229.325C108.859 226.187 111.76 223.587 115.12 221.713C117.24 220.547 119.557 219.786 121.955 219.469C123.614 219.233 124.48 219.32 124.468 219.233Z" fill="#777C85"/>
<path d="M333.768 392.708L338.287 438.876L324.384 438.752L306.976 392.646L333.768 392.708Z" fill="#263238"/>
<path d="M307.793 283.823C307.331 283.824 306.87 283.774 306.419 283.674L302.705 283.054C299.56 282.521 295.276 281.753 290.41 281.232C286.297 280.806 282.164 280.607 278.029 280.637H274.315C273.855 280.698 273.389 280.698 272.928 280.637C273.378 280.519 273.839 280.453 274.303 280.439C275.194 280.339 276.482 280.265 278.079 280.191C282.239 280.018 286.406 280.15 290.546 280.587C295.4 281.108 299.746 281.951 302.866 282.596C304.426 282.93 305.688 283.216 306.58 283.426C306.999 283.507 307.407 283.64 307.793 283.823Z" fill="#777C85"/>
<path d="M329.769 211.014C329.769 211.076 328.766 211.522 327.008 212.501C324.525 213.898 322.218 215.588 320.137 217.535C317.05 220.439 314.406 223.78 312.287 227.453C309.691 231.931 307.732 236.75 306.468 241.771C303.844 252.508 303.992 262.636 304.178 269.839C304.277 273.471 304.425 276.397 304.5 278.418C304.5 279.385 304.562 280.154 304.586 280.761C304.616 281.033 304.616 281.307 304.586 281.579C304.519 281.311 304.482 281.037 304.475 280.761C304.413 280.166 304.351 279.397 304.265 278.443C304.104 276.422 303.893 273.484 303.732 269.864C303.571 266.244 303.472 261.905 303.732 257.095C303.927 251.855 304.636 246.648 305.849 241.548C307.124 236.466 309.121 231.594 311.78 227.081C313.951 223.39 316.664 220.047 319.827 217.163C321.957 215.213 324.329 213.546 326.885 212.204C327.764 211.708 328.531 211.46 329.014 211.225C329.261 211.138 329.513 211.068 329.769 211.014Z" fill="#777C85"/>
<g opacity="0.3">
<path d="M166.724 297.832C176.121 300.033 185.765 300.999 195.411 300.708C196.127 330.872 198.732 360.962 203.211 390.799C205.551 392.026 208.108 392.78 210.739 393.018C213.376 393.093 216.223 391.89 217.313 389.485C217.844 388.001 218.026 386.415 217.845 384.849C216.542 354.81 213.454 324.875 208.597 295.204C208.238 292.997 207.73 290.567 205.885 289.315C204.041 288.063 201.8 288.447 199.695 288.844C188.065 291.018 176.555 293.708 165.164 296.915" fill="black"/>
</g>
<g opacity="0.3">
<path d="M152.981 295.315L155.891 336.574C155.891 336.574 165.635 314.258 163.134 305.717C161.742 300.743 157.915 296.823 152.981 295.315H152.981Z" fill="black"/>
</g>
<path d="M150.493 131.212L147.596 33.6333L144.451 28.0173C141.678 25.5379 137.183 25.9966 134.187 28.1537C131.191 30.3108 129.433 33.8069 128.232 37.3029C122.438 54.0888 126.994 72.536 125.756 90.2517C125.496 94.0949 124.889 98.0868 122.661 101.223C119.627 105.488 113.994 107.583 111.691 112.269C109.655 116.712 111.102 121.978 115.121 124.753C112.285 126.415 109.351 128.15 107.457 130.84C105.562 133.531 105.055 137.485 107.135 140.027C109.4 142.779 113.523 142.816 117.04 142.506C127.076 141.637 136.989 139.684 146.605 136.68C147.847 136.418 148.969 135.756 149.8 134.795C150.403 133.704 150.646 132.45 150.493 131.212Z" fill="#263238"/>
<path d="M129.817 114.414C130.843 114.014 131.766 113.387 132.516 112.579C133.977 111.017 135.079 107.992 135.4 104.186C136.09 94.1918 136.045 84.1602 135.264 74.1724C134.806 68.3209 134.113 62.7669 133.32 57.746C132.528 52.7251 132.082 48.0017 133.16 44.2082C133.91 41.1844 135.698 38.5209 138.211 36.683C138.902 36.2189 139.652 35.8479 140.44 35.5796C140.719 35.4921 141.004 35.4258 141.294 35.3813C137.304 36.7578 134.362 40.1772 133.593 44.3321C132.602 48.0513 133.048 52.6507 133.902 57.6468C134.757 62.6429 135.45 68.2465 135.896 74.1228C136.705 84.1441 136.705 94.2145 135.896 104.236C135.5 108.091 134.311 111.178 132.739 112.753C132.151 113.356 131.453 113.84 130.683 114.178C130.406 114.295 130.115 114.374 129.817 114.414Z" fill="#455A64"/>
<path d="M150.889 27.7322C149.775 26.5544 148.029 27.0503 146.741 27.9801C144.449 29.8169 142.73 32.2737 141.789 35.059C140.744 38.0378 140.078 41.1368 139.808 44.2826C139.61 46.105 139.61 48.2993 140.786 49.353C141.651 50.0473 142.881 50.0473 143.745 49.353C144.666 48.6007 145.424 47.6685 145.974 46.6132C148.483 42.3998 150.509 37.9168 152.016 33.249C152.263 31.8233 151.756 28.6372 150.889 27.7322Z" fill="#3ED0A3"/>
<path d="M141.715 52.1301C144.191 41.5552 148.648 30.7447 157.401 24.3105C165.201 18.5954 176.58 16.4134 186.224 17.1325C190.979 17.4796 196.278 19.8599 200.339 22.3394C205.922 25.7486 208.114 32.3564 210.664 38.3691C215.765 50.4316 214.54 66.4985 210.664 70.85L160.224 95.4586C151.558 90.5988 142.247 84.0531 140.241 74.3832C138.88 67.7382 140.167 58.7006 141.715 52.1301Z" fill="#263238"/>
<path d="M160.819 33.3606L192.328 25.1535C202.419 24.0254 209.228 36.4351 209.934 46.5885C210.726 57.87 211.246 71.6682 209.934 80.0612C207.371 97.0083 194.408 101.037 194.408 101.037C194.408 101.037 194.408 115.753 194.321 120.786L179.625 165.615L158.726 120.786L155.532 39.4724C155.435 36.3672 157.735 33.7078 160.819 33.3606Z" fill="#FFBE9D"/>
<path d="M204.263 60.2503C204.278 61.4272 203.358 62.4036 202.183 62.457C201.625 62.5048 201.072 62.3252 200.647 61.9589C200.223 61.5925 199.965 61.0704 199.93 60.5106C199.916 59.3337 200.836 58.3573 202.01 58.3039C202.567 58.2595 203.119 58.4404 203.543 58.806C203.966 59.1717 204.226 59.6918 204.263 60.2503Z" fill="#263238"/>
<path d="M207 53.7913C206.727 54.0764 205.081 52.8739 202.741 52.8863C200.401 52.8987 198.704 54.126 198.457 53.8161C198.209 53.5061 198.593 53.1714 199.336 52.5763C200.345 51.8692 201.546 51.4885 202.778 51.4854C203.988 51.4786 205.17 51.8514 206.158 52.5515C206.876 53.1094 207.123 53.6673 207 53.7913Z" fill="#263238"/>
<path d="M183.129 60.2503C183.15 61.4252 182.234 62.4035 181.061 62.457C180.503 62.5084 179.947 62.33 179.522 61.963C179.097 61.596 178.839 61.0717 178.808 60.5106C178.794 59.3337 179.714 58.3573 180.888 58.3039C181.444 58.2596 181.995 58.4408 182.416 58.8068C182.837 59.1728 183.094 59.6929 183.129 60.2503Z" fill="#263238"/>
<path d="M184.058 54.3492C183.798 54.6343 182.139 53.4194 179.811 53.4442C177.483 53.469 175.775 54.6839 175.515 54.3616C175.255 54.0392 175.663 53.7293 176.406 53.1838C177.406 52.468 178.606 52.0863 179.836 52.0929C181.051 52.0784 182.239 52.4518 183.228 53.159C183.946 53.7417 184.194 54.25 184.058 54.3492Z" fill="#263238"/>
<path d="M192.65 71.7054C193.853 71.3132 195.101 71.0758 196.364 70.9987C196.971 70.9244 197.528 70.8004 197.602 70.3913C197.649 69.7765 197.506 69.1623 197.194 68.6309C196.624 67.1928 196.03 65.6803 195.399 64.1059C192.922 57.6469 191.102 52.3408 191.362 52.2416C191.622 52.1425 193.839 57.2997 196.315 63.7463C196.921 65.3332 197.553 66.8581 198.036 68.3085C198.418 69.0264 198.532 69.8571 198.358 70.6516C198.194 71.0795 197.834 71.4024 197.392 71.5194C197.062 71.6174 196.72 71.6675 196.377 71.6682C195.141 71.8372 193.889 71.8497 192.65 71.7054Z" fill="#263238"/>
<path d="M194.482 101.199L194.383 105.414C177.471 107.112 171.788 95.3098 171.788 95.3098C178.662 99.3396 186.519 101.378 194.482 101.199Z" fill="#EB996E"/>
<path d="M184.974 76.0693C185.648 75.0076 186.813 74.3592 188.069 74.346C189.839 74.1979 191.549 75.0301 192.526 76.5156C192.878 77.1919 192.954 77.9788 192.737 78.7099C192.576 79.0818 192.737 78.8958 192.415 79.1562C191.455 80.1594 190.265 80.9127 188.948 81.3505C187.492 81.7094 185.964 81.1569 185.073 79.9496C184.315 78.7774 184.277 77.2787 184.974 76.0693Z" fill="#EB996E"/>
<path d="M185.791 73.317C186.175 73.317 186.187 75.7965 188.379 77.6189C190.57 79.4413 193.244 79.1065 193.331 79.4537C193.331 79.6148 192.737 79.9496 191.598 79.9868C190.114 80.0295 188.664 79.5367 187.512 78.5983C186.396 77.7062 185.676 76.4103 185.506 74.9906C185.345 73.9369 185.618 73.3046 185.791 73.317Z" fill="#263238"/>
<path d="M185.11 46.9108C184.875 47.543 182.547 47.2579 179.811 47.605C177.075 47.9522 174.859 48.7208 174.5 48.1505C174.339 47.8778 174.722 47.2827 175.601 46.6628C178.005 45.1139 180.988 44.7617 183.686 45.7082C184.689 46.0926 185.209 46.5885 185.11 46.9108Z" fill="#263238"/>
<path d="M206.096 45.671C205.687 46.2041 204.078 45.671 202.134 45.671C200.19 45.671 198.568 46.0554 198.197 45.5099C198.023 45.2371 198.283 44.7041 198.989 44.1958C200.945 42.9497 203.458 43.0085 205.353 44.3445C206.046 44.9148 206.269 45.4603 206.096 45.671Z" fill="#263238"/>
<path d="M160.088 60.0395C159.853 59.9403 150.666 57.0146 150.753 66.4737C150.839 75.9328 160.299 73.9121 160.311 73.6145C160.323 73.317 160.088 60.0395 160.088 60.0395Z" fill="#FFBE9D"/>
<path d="M157.401 70.0565C157.401 70.0565 157.228 70.1805 156.956 70.3045C156.559 70.4684 156.114 70.4684 155.718 70.3045C154.469 69.5302 153.735 68.1413 153.799 66.6721C153.773 65.8596 153.925 65.0514 154.244 64.3042C154.428 63.7122 154.891 63.2486 155.482 63.0644C155.869 62.965 156.273 63.1514 156.448 63.5108C156.584 63.7711 156.522 63.9695 156.572 63.9818C156.621 63.9942 156.77 63.8207 156.696 63.424C156.646 63.1914 156.514 62.9846 156.324 62.8413C156.062 62.6445 155.733 62.5598 155.408 62.6058C154.62 62.7722 153.974 63.3349 153.7 64.0934C153.308 64.9169 153.121 65.8228 153.155 66.734C153.229 68.6308 154.22 70.4532 155.631 70.788C156.144 70.9349 156.696 70.839 157.129 70.5276C157.377 70.2921 157.426 70.0813 157.401 70.0565Z" fill="#EB996E"/>
<path d="M154.281 73.2054C154.281 73.2054 153.873 73.6145 153.922 74.4452C153.944 74.9596 154.188 75.4393 154.591 75.7593C155.144 76.0738 155.809 76.124 156.404 75.896C156.998 75.668 157.459 75.1859 157.661 74.5815C157.759 74.0825 157.666 73.565 157.401 73.1311C156.931 72.3996 156.337 72.3376 156.337 72.3872C156.337 72.4368 156.782 72.6352 157.104 73.2922C157.297 73.6759 157.341 74.1176 157.228 74.5319C157.07 74.9934 156.702 75.3523 156.238 75.4989C155.796 75.7125 155.281 75.7125 154.839 75.4989C154.519 75.2551 154.309 74.8937 154.257 74.4948C154.212 74.0656 154.22 73.6325 154.281 73.2054Z" fill="#E0E0E0"/>
<path d="M210.689 49.2663C209.26 46.5901 207.036 44.4241 204.325 43.0676C201.701 41.5675 198.865 40.4766 196.253 38.9641C190.214 35.4192 185.698 29.7625 183.575 23.0832C188.363 20.7806 193.95 20.8494 198.68 23.2691C203.352 25.7302 207.04 29.7209 209.129 34.5755C211.186 39.4054 212.171 44.6253 212.014 49.8737" fill="#263238"/>
<path d="M157.921 30.7943C164.892 24.1617 178.09 20.4921 187.178 23.6039C185.828 31.5629 179.836 40.489 174.561 46.6008C169.287 52.7127 166.043 63.4983 154.504 59.8411C153.712 59.5808 152.796 60.3122 152.028 59.8411C151.462 59.4089 151.067 58.7895 150.914 58.0931C147.968 48.3973 150.672 37.8661 157.921 30.7943Z" fill="#263238"/>
<path d="M153.947 29.2943C153.947 29.2943 153.947 29.4058 154.145 29.6166C154.343 29.8273 154.492 30.1125 154.801 30.4596C155.648 31.4711 156.608 32.3821 157.661 33.1746C159.23 34.3534 160.972 35.2819 162.824 35.9268C165.095 36.7305 167.5 37.0842 169.906 36.9682C172.311 36.812 174.664 36.1977 176.84 35.1582C178.608 34.3078 180.237 33.1915 181.668 31.8481C182.627 30.9462 183.483 29.9399 184.219 28.848C184.491 28.4636 184.64 28.1413 184.776 27.9306C184.843 27.8217 184.897 27.7052 184.937 27.5834C183.915 29.0439 182.745 30.3942 181.445 31.6126C180.021 32.9057 178.41 33.9757 176.666 34.7863C172.376 36.8383 167.45 37.1101 162.96 35.5425C161.134 34.9291 159.41 34.0431 157.847 32.9143C156.426 31.8449 155.12 30.6318 153.947 29.2943Z" fill="white"/>
<path d="M149.416 42.1626C149.515 42.2781 149.622 42.3858 149.738 42.485C150.049 42.7831 150.38 43.0606 150.728 43.3156C152.001 44.2768 153.423 45.0223 154.938 45.5223C157.183 46.283 159.554 46.6029 161.921 46.4645C164.822 46.3201 167.665 45.5906 170.278 44.3197C172.859 43.0052 175.22 41.2943 177.273 39.2493C178.941 37.5862 180.442 35.7633 181.755 33.8068C182.656 32.4989 183.482 31.1414 184.231 29.7405C184.503 29.2446 184.689 28.8479 184.813 28.5876C184.894 28.4576 184.952 28.3152 184.986 28.1661C184.891 28.2811 184.808 28.4058 184.739 28.538L184.082 29.6538C183.525 30.6207 182.683 31.9968 181.532 33.6333C180.189 35.5393 178.677 37.3194 177.013 38.9517C174.976 40.9473 172.646 42.6196 170.104 43.9106C167.544 45.1583 164.763 45.8871 161.921 46.0554C159.602 46.1962 157.277 45.9105 155.061 45.2124C153.564 44.7458 152.145 44.0562 150.852 43.1668C149.911 42.5345 149.453 42.1254 149.416 42.1626Z" fill="#455A64"/>
<path d="M157.699 93.8717C157.699 93.8717 157.513 93.8717 157.203 93.6486C156.894 93.4254 156.411 93.2271 155.829 92.8552C154.178 91.8483 152.609 90.7125 151.137 89.4583C148.929 87.6005 146.973 85.4626 145.318 83.0985C143.305 80.1826 141.779 76.9587 140.799 73.5526C139.022 67.353 138.865 60.8008 140.341 54.5227C140.789 52.6328 141.394 50.7833 142.148 48.9935C142.408 48.3613 142.656 47.8902 142.817 47.5678C142.885 47.3986 142.976 47.2399 143.089 47.0967C142.899 47.7771 142.663 48.4439 142.383 49.0927C141.725 50.8969 141.191 52.7443 140.786 54.6219C139.461 60.8277 139.678 67.2644 141.418 73.3666C142.375 76.7105 143.855 79.882 145.801 82.7638C147.415 85.0998 149.307 87.2312 151.434 89.1112C152.871 90.3807 154.384 91.5607 155.965 92.6444C156.568 93.0167 157.147 93.4267 157.699 93.8717Z" fill="#455A64"/>
<path d="M295.177 332.111L310.938 360.798C310.938 360.798 344.107 352.368 347.536 357.376L294.298 392.014L267.889 348.326L295.177 332.111Z" fill="#3ED0A3"/>
<g opacity="0.6">
<path d="M292.688 368.521C291.802 369.503 291.802 370.998 292.688 371.98C293.645 372.893 295.149 372.893 296.106 371.98C297.054 370.946 297.054 369.357 296.106 368.323C295.021 367.453 293.444 367.601 292.54 368.658" fill="white"/>
</g>
<g opacity="0.6">
<path d="M294.335 392.014L291.673 387.613L344.168 355.963C345.646 355.82 347.095 356.436 348.019 357.599L294.335 392.014Z" fill="white"/>
</g>
<path d="M311.656 359.992C311.805 360.265 310.554 361.232 309.749 362.819C308.945 364.406 308.932 366.005 308.623 366.042C308.313 366.079 307.793 364.306 308.784 362.323C309.774 360.339 311.569 359.719 311.656 359.992Z" fill="#263238"/>
<path d="M318.787 358.938C318.998 359.161 318.119 360.302 317.884 361.976C317.648 363.649 318.106 364.988 317.884 365.137C317.661 365.286 316.546 363.897 316.868 361.802C317.19 359.707 318.626 358.69 318.787 358.938Z" fill="#263238"/>
<path d="M326.117 363.848C325.907 364.046 324.743 362.93 324.557 361.071C324.371 359.211 325.263 357.872 325.51 358.033C325.758 358.194 325.448 359.422 325.622 360.959C325.795 362.496 326.365 363.662 326.117 363.848Z" fill="#263238"/>
<path d="M307.335 353.855C307.335 354.165 305.936 354.525 304.487 355.529C303.039 356.533 302.16 357.711 301.887 357.562C301.615 357.413 302.172 355.789 303.881 354.636C305.589 353.483 307.347 353.57 307.335 353.855Z" fill="#263238"/>
<g opacity="0.3">
<path d="M298.284 337.801L301.107 342.909L274.191 358.69L271.467 354.203L298.284 337.801Z" fill="black"/>
</g>
<path d="M304.054 348.165C304.054 348.277 303.163 349.07 301.318 349.789C300.228 350.198 299.093 350.476 297.938 350.62C297.254 350.672 296.567 350.68 295.883 350.644C295.465 350.66 295.047 350.61 294.644 350.496C294.053 350.325 293.655 349.772 293.679 349.157C293.719 348.617 294.013 348.129 294.471 347.843C294.82 347.637 295.195 347.479 295.585 347.372C296.253 347.172 296.937 347.027 297.628 346.938C298.797 346.805 299.979 346.856 301.132 347.086C303.088 347.508 304.116 348.239 304.054 348.326C303.992 348.413 302.878 348.016 301.008 347.818C299.928 347.707 298.838 347.736 297.764 347.905C297.134 348.008 296.513 348.161 295.907 348.363C295.239 348.549 294.744 348.847 294.756 349.182C294.756 349.318 294.756 349.355 294.991 349.454C295.281 349.536 295.582 349.574 295.883 349.566C296.526 349.604 297.171 349.604 297.814 349.566C298.91 349.475 299.996 349.284 301.058 348.996C302.035 348.647 303.037 348.37 304.054 348.165Z" fill="#263238"/>
<path d="M303.93 348.711C303.868 348.81 302.766 348.177 301.64 346.504C300.6 344.932 300.009 343.106 299.931 341.223C299.79 340.311 300.138 339.393 300.847 338.805C301.348 338.513 301.973 338.542 302.445 338.879C302.771 339.114 303.063 339.394 303.311 339.71C304.537 341.211 305.12 343.136 304.933 345.066C304.723 347.124 303.794 348.103 303.695 348.029C303.913 347.04 304.066 346.037 304.153 345.029C304.152 343.968 303.924 342.919 303.485 341.954C303.227 341.394 302.894 340.873 302.494 340.404C302.061 339.871 301.566 339.537 301.38 339.722C301.035 340.126 300.881 340.66 300.959 341.185C300.97 341.819 301.041 342.45 301.169 343.07C301.386 344.135 301.758 345.162 302.271 346.119C303.175 347.768 304.054 348.587 303.93 348.711Z" fill="#263238"/>
<path d="M246.978 387.836L245.356 420.54C245.356 420.54 279.181 430.644 278.636 438.665L214.985 438.578L215.295 387.316L246.978 387.836Z" fill="#3ED0A3"/>
<g opacity="0.6">
<path d="M225.782 417.478C224.511 417.845 223.72 419.112 223.949 420.416C224.262 421.706 225.534 422.52 226.834 422.264C228.179 421.868 229.012 420.522 228.765 419.14C228.292 417.831 226.868 417.134 225.546 417.565" fill="white"/>
</g>
<g opacity="0.6">
<path d="M214.985 438.541L214.899 433.198L275.64 433.868C275.64 433.868 278.636 436 278.636 438.628L214.985 438.541Z" fill="white"/>
</g>
<path d="M246.359 420.193C246.359 420.503 244.786 420.627 243.251 421.607C241.716 422.586 240.886 423.875 240.602 423.751C240.317 423.627 240.8 421.83 242.682 420.689C244.564 419.549 246.47 419.908 246.359 420.193Z" fill="#263238"/>
<path d="M253.007 423.045C253.082 423.342 251.769 423.851 250.655 425.152C249.541 426.454 249.268 427.83 248.959 427.818C248.649 427.805 248.476 426.045 249.838 424.458C251.2 422.871 253.007 422.747 253.007 423.045Z" fill="#263238"/>
<path d="M256.684 431.066C256.4 431.14 255.991 429.578 256.808 427.892C257.625 426.206 259.086 425.549 259.21 425.809C259.334 426.07 258.43 426.962 257.774 428.363C257.118 429.764 256.994 431.041 256.684 431.066Z" fill="#263238"/>
<path d="M245.938 412.705C245.802 412.978 244.39 412.532 242.632 412.631C240.874 412.73 239.512 413.263 239.351 412.99C239.19 412.718 240.527 411.639 242.583 411.552C244.638 411.466 246.099 412.457 245.938 412.705Z" fill="#263238"/>
<g opacity="0.3">
<path d="M245.876 410.957L245.504 417.466L215.047 416.672L215.084 411.416L245.876 410.957Z" fill="black"/>
</g>
<path d="M246.148 406.098C245.101 406.36 244.003 406.338 242.966 406.036C241.144 405.676 239.406 404.978 237.841 403.978C237.488 403.773 237.17 403.514 236.9 403.209C236.479 402.756 236.428 402.072 236.776 401.56C237.097 401.129 237.6 400.872 238.138 400.866C238.557 400.87 238.974 400.933 239.376 401.052C240.053 401.225 240.712 401.462 241.344 401.759C242.41 402.256 243.391 402.917 244.254 403.717C245.702 405.106 246.185 406.271 246.086 406.333C245.987 406.395 245.244 405.453 243.759 404.3C242.893 403.64 241.949 403.091 240.948 402.664C240.359 402.42 239.75 402.225 239.128 402.081C238.46 401.895 237.89 401.883 237.704 402.18C237.519 402.478 237.642 402.341 237.779 402.54C237.983 402.753 238.216 402.937 238.472 403.085C239.007 403.452 239.565 403.783 240.143 404.077C241.117 404.586 242.137 405.001 243.189 405.317C244.193 405.505 245.182 405.766 246.148 406.098Z" fill="#263238"/>
<path d="M245.727 406.531C245.145 405.616 244.868 404.54 244.935 403.457C244.9 402.277 245.063 401.099 245.418 399.973C245.63 399.305 245.912 398.661 246.26 398.052C246.617 397.204 247.392 396.606 248.303 396.477C248.878 396.499 249.39 396.851 249.615 397.382C249.778 397.752 249.882 398.145 249.924 398.548C250.036 399.258 250.036 399.982 249.924 400.692C249.732 401.881 249.252 403.005 248.525 403.965C247.287 405.589 245.963 405.949 245.938 405.837C245.913 405.726 246.928 405.093 247.894 403.531C248.458 402.628 248.817 401.613 248.946 400.556C249.026 399.943 249.026 399.322 248.946 398.709C248.86 398.039 248.612 397.469 248.352 397.556C248.092 397.643 247.498 398.052 247.225 398.585C246.362 400.071 245.861 401.74 245.764 403.457C245.591 405.329 245.901 406.494 245.727 406.531Z" fill="#263238"/>
<path d="M154.64 108.55L158.206 107.038C157.117 105.302 165.635 121.914 177.199 122.026C193.022 122.175 194.606 106.381 194.606 106.381L195.436 106.492L221.436 133.481L224.865 209.105L222.043 218.812L166.18 239.069L146.692 200.228L144.971 176.289L154.64 108.55Z" fill="#F5F5F5"/>
<path d="M156.337 107.658C156.337 107.658 124.604 114.885 119.429 128.448C117.151 134.436 116.42 231.023 116.42 231.023C116.42 231.023 112.471 239.862 112.706 258.099C112.954 275.579 124.493 286.873 138.904 290.146C138.904 290.146 142.693 262.686 157.884 248.912C172.271 235.87 173.596 237.457 173.596 237.457L170.129 205.956L166.526 178.533C162.923 158.945 166.984 137.696 160.336 118.914L156.337 107.658Z" fill="#3ED0A3"/>
<path d="M223.33 126.911L244.972 222.233L221.708 216.94L214.28 159.739L195.188 106.43C195.188 106.43 198.395 106.852 202.53 107.496C212.781 109.09 221.023 116.784 223.33 126.911Z" fill="#3ED0A3"/>
<g opacity="0.3">
<path d="M116.643 247.437C116.625 248.613 117.209 249.717 118.191 250.363C119.165 250.984 120.264 251.382 121.41 251.528C126.771 252.47 132.28 251.454 137.505 249.793C143.401 247.732 149.14 245.246 154.678 242.354C162.886 238.288 165.474 236.441 173.249 231.544C165.201 234.841 162.54 235.263 154.046 237.197C141.38 240.11 128.046 241.548 116.643 247.673" fill="black"/>
</g>
<path d="M163.208 211.423L177.36 208.373C177.36 208.373 193.628 199.286 197.281 199.298C200.562 199.298 213.549 205.199 216.1 206.365C216.385 206.492 216.62 206.71 216.768 206.985C217.111 207.552 217.212 208.234 217.049 208.877C216.886 209.52 216.473 210.071 215.902 210.406L215.666 210.543L215.827 210.877C216.046 211.307 216.185 211.774 216.236 212.254C216.303 213.001 215.875 213.705 215.182 213.989C214.489 214.274 213.691 214.073 213.215 213.493L213.784 214.212C214.021 214.498 214.168 214.847 214.205 215.216L214.28 215.936C214.369 216.737 213.956 217.512 213.24 217.882C212.559 218.231 211.738 218.153 211.135 217.684C209.389 216.283 205.638 213.53 203.409 213.53C201.012 213.627 198.625 213.892 196.265 214.324C195.28 214.501 194.499 215.254 194.284 216.233C195.584 216.109 205.328 219.332 208.782 220.485C209.864 220.824 210.71 221.672 211.048 222.754C211.321 223.721 211.048 224.849 208.956 224.713C204.715 224.168 200.519 223.314 196.402 222.159C196.402 222.159 192.291 221.688 190.05 223.895C186.893 226.994 185.407 228.196 182.176 227.676C180.211 227.356 178.288 226.815 176.443 226.064L171.318 227.043L163.208 211.423Z" fill="#FFBE9D"/>
<path d="M193.009 208.807C194.049 208.428 195.106 208.101 196.179 207.828C201.467 206.606 207.021 207.988 211.123 211.547C212.67 212.886 213.425 213.94 213.475 213.89C213.329 213.628 213.155 213.382 212.955 213.159C212.445 212.517 211.882 211.92 211.271 211.373C207.166 207.66 201.471 206.262 196.117 207.654C195.323 207.85 194.549 208.116 193.802 208.448C193.525 208.537 193.259 208.658 193.009 208.807H193.009Z" fill="#EB996E"/>
<path d="M194.148 204.356C195.191 203.842 196.293 203.459 197.429 203.216C200.203 202.749 203.053 203.075 205.65 204.158C208.236 205.276 210.663 206.731 212.868 208.485L214.899 210.047C215.135 210.255 215.392 210.438 215.666 210.592C215.46 210.357 215.232 210.141 214.985 209.948C214.527 209.551 213.859 208.981 213.004 208.299C210.822 206.473 208.387 204.973 205.774 203.848C203.123 202.735 200.202 202.434 197.38 202.98C196.52 203.161 195.688 203.453 194.903 203.848C194.619 203.985 194.433 204.133 194.297 204.208C194.161 204.282 194.136 204.356 194.148 204.356Z" fill="#EB996E"/>
<path d="M138.644 131.411L131.575 207.543H129.569L161.623 208.187L173.212 231.507C173.212 231.507 131.191 251.974 113.238 246.383C91.9431 239.689 98.0222 215.911 98.1832 207.505C98.1832 206.03 110.156 135.304 121.707 124.704C121.682 124.654 136.948 125.671 138.644 131.411Z" fill="#3ED0A3"/>
<path d="M139.585 152.66C139.592 153.35 139.534 154.039 139.412 154.718C139.214 156.143 138.954 158.015 138.657 160.284C137.939 165.082 136.973 171.504 135.908 178.595C134.843 185.686 133.865 192.232 133.209 196.918C132.887 199.174 132.615 201.046 132.404 202.472C132.346 203.16 132.221 203.841 132.033 204.505C132.021 203.817 132.062 203.129 132.157 202.447C132.268 201.121 132.466 199.212 132.739 196.856C133.283 192.145 134.162 185.698 135.215 178.496C136.267 171.293 137.369 164.859 138.149 160.21C138.545 157.966 138.867 156.094 139.115 154.68C139.221 153.996 139.378 153.321 139.585 152.66V152.66Z" fill="#263238"/>
<path d="M137.159 119.869C137.159 119.869 137.419 120.129 137.778 120.662C138.289 121.432 138.74 122.24 139.127 123.08C139.726 124.311 140.215 125.593 140.588 126.911C141.046 128.534 141.369 130.193 141.554 131.869C141.863 134.891 141.863 137.936 141.554 140.957C141.501 142.213 141.315 143.46 140.997 144.676C140.935 143.436 140.964 142.193 141.083 140.957C141.233 137.963 141.154 134.963 140.848 131.981C140.665 130.35 140.368 128.735 139.957 127.146C139.622 125.853 139.208 124.582 138.719 123.34C137.815 121.146 137.059 119.931 137.159 119.869Z" fill="#263238"/>
<path d="M113.189 246.334C113.291 246.315 113.396 246.315 113.498 246.334L114.402 246.569C115.568 246.828 116.752 247.002 117.943 247.09C122.333 247.251 126.724 246.834 131.005 245.85C133.729 245.267 136.738 244.61 139.907 243.904C143.077 243.197 146.358 241.858 149.812 240.581C156.708 237.978 164.223 234.916 172.098 231.606L173.076 231.184L172.902 231.63L161.339 208.299L161.611 208.472C156.448 208.472 151.706 208.138 147.534 208.014C143.361 207.89 139.647 207.766 136.614 207.79C133.58 207.815 131.191 207.939 129.557 208.113C127.922 208.286 127.08 208.435 127.08 208.386C127.282 208.319 127.489 208.269 127.699 208.237C128.12 208.15 128.739 208.014 129.557 207.914C131.903 207.627 134.263 207.47 136.626 207.443C139.672 207.369 143.349 207.443 147.559 207.518C151.768 207.592 156.498 207.852 161.611 207.865H161.797L161.883 208.026C165.362 215.006 169.312 222.903 173.509 231.333L173.67 231.643L173.348 231.779L172.37 232.201C164.52 235.523 156.993 238.573 150.084 241.139C146.618 242.379 143.312 243.619 140.105 244.424C136.899 245.23 133.915 245.739 131.166 246.296C126.843 247.269 122.404 247.628 117.98 247.363C116.34 247.269 114.724 246.922 113.189 246.334H113.189Z" fill="#263238"/>
<path d="M135.277 207.741C135.19 207.815 134.472 206.997 133.036 206.092C131.144 204.947 129.036 204.204 126.845 203.91C124.628 203.635 122.39 203.564 120.159 203.699C119.225 203.789 118.284 203.789 117.349 203.699C118.247 203.412 119.18 203.25 120.122 203.216C122.387 202.93 124.679 202.93 126.944 203.216C129.243 203.512 131.435 204.363 133.333 205.695C134.139 206.206 134.807 206.909 135.277 207.741Z" fill="#263238"/>
<g opacity="0.3">
<path d="M134.732 207.642C130.176 206.954 125.524 207.288 121.113 208.621C118.414 209.452 115.69 210.753 114.18 213.146C113.684 213.915 113.387 215.018 114.043 215.626C114.714 216.082 115.589 216.106 116.284 215.688C117.817 214.914 119.248 213.952 120.543 212.824C122.682 211.117 125.055 209.727 127.588 208.695C130.135 207.673 132.903 207.328 135.623 207.691" fill="black"/>
</g>
<g opacity="0.3">
<path d="M133.32 206.005C132.367 203.327 128.851 200.823 126.585 200.055C121.422 198.294 115.442 197.637 110.911 200.6C110.37 200.86 109.984 201.361 109.871 201.951C109.871 202.77 110.75 203.265 111.542 203.489C114.798 204.381 118.253 203.836 121.62 203.489C124.988 203.141 128.591 203.117 131.525 204.84" fill="black"/>
</g>
<g opacity="0.3">
<path d="M132.256 202.658C139.239 187.902 141.654 171.392 139.189 155.251L132.256 202.658Z" fill="black"/>
</g>
<path d="M138.929 290.195C138.929 290.195 150.394 297.807 173.162 297.807C195.931 297.807 201.156 296.233 201.156 296.233L222.488 276.831L269.288 358.901C269.288 358.901 306.431 335.842 306.666 336.586C307.112 337.032 272 258.842 264.348 245.317C261.781 240.894 258.884 236.671 255.682 232.684C247.864 222.569 234.929 217.864 222.451 220.597C215.85 221.977 209.348 223.795 202.988 226.039C186.001 232.238 171.602 236.453 159.32 247.363C145.07 259.971 136.465 284.443 138.929 290.195Z" fill="#263238"/>
<path d="M217.164 267.384C217.164 267.384 200.326 279.05 200.784 288.46C201.156 296.295 211.568 411.602 211.568 411.602L253.007 410.908L255.855 335.396L217.164 267.384Z" fill="#263238"/>
<path d="M259.185 341.185C259.111 341.099 259.048 341.003 259 340.9L258.504 340.057C258.046 339.264 257.427 338.16 256.647 336.772L249.937 324.61L228.01 284.369L219.343 268.252L219.665 268.413C213.503 269.217 208.011 272.707 204.66 277.947C203.267 280.16 202.317 282.623 201.862 285.199C201.486 287.422 201.333 289.677 201.403 291.931C201.515 296.034 201.899 299.369 201.998 301.564C202.06 302.692 202.084 303.572 202.084 304.155C202.106 304.452 202.106 304.75 202.084 305.047C202.024 304.753 201.991 304.455 201.985 304.155C201.985 303.522 201.874 302.667 201.8 301.588C201.626 299.332 201.193 296.084 201.02 291.931C200.911 289.651 201.04 287.366 201.403 285.112C201.85 282.474 202.804 279.947 204.214 277.674C207.619 272.245 213.258 268.611 219.603 267.756H219.814L219.913 267.955C222.649 272.975 225.596 278.418 228.654 284.071L250.407 324.399C253.144 329.532 255.36 333.71 256.932 336.66L258.678 340.008L259.111 340.888C259.148 341.074 259.198 341.173 259.185 341.185Z" fill="#455A64"/>
<path d="M224.556 251.702C220.479 256.415 218.578 262.632 219.319 268.822C218.955 267.967 218.762 267.049 218.749 266.12C218.417 261.61 219.782 257.139 222.575 253.586C223.107 252.836 223.78 252.196 224.556 251.702Z" fill="#455A64"/>
<path d="M215.84 248.516C215.951 248.516 215.617 249.755 215.369 251.602C215.048 254.077 215.115 256.587 215.567 259.041C216.032 261.488 216.867 263.85 218.043 266.045C218.972 267.731 219.703 268.686 219.616 268.748C218.818 268.045 218.151 267.205 217.647 266.268C214.938 261.861 213.95 256.607 214.874 251.516C215.029 250.469 215.355 249.456 215.84 248.516Z" fill="#455A64"/>
<path d="M183.538 195.554C183.439 195.48 184.776 194.029 186.323 191.401C187.262 189.868 188.09 188.268 188.8 186.616C189.65 184.588 190.333 182.494 190.842 180.355C191.327 178.206 191.637 176.021 191.771 173.822C191.86 172.024 191.819 170.221 191.647 168.429C191.362 165.355 190.855 163.47 190.979 163.47C191.163 163.867 191.304 164.283 191.4 164.71C191.552 165.214 191.672 165.728 191.759 166.247C191.87 166.855 192.031 167.549 192.105 168.33C192.342 170.142 192.425 171.971 192.353 173.797C192.263 176.034 191.969 178.259 191.474 180.442C190.953 182.621 190.241 184.749 189.344 186.802C188.603 188.473 187.721 190.078 186.707 191.6C186.324 192.191 185.911 192.762 185.469 193.31C185.163 193.746 184.828 194.16 184.466 194.55C184.205 194.926 183.892 195.264 183.538 195.554Z" fill="#263238"/>
<path d="M221.597 121.914C221.597 121.914 266.527 199.199 267.53 205.137C268.273 209.551 266.849 222.134 262.825 223.733C251.559 228.296 238.534 223.002 226.636 214.758L224.853 213.518L221.597 121.914Z" fill="#3ED0A3"/>
<path d="M23.8974 111.092C23.8974 111.092 30.9422 106.988 32.5641 118.406C34.186 129.824 45.7994 213.543 45.7994 213.543L117.671 212.861C117.671 212.861 132.862 212.291 143.163 243.271C150.369 264.954 157.723 338.731 157.723 338.731L156.361 392.113H26.3612C26.3612 392.113 22.4488 280.178 21.7803 230.391C21.1117 180.603 19.6879 126.39 23.8974 111.092Z" fill="#16284D"/>
<path d="M30.385 110.348C30.385 110.348 30.5088 110.472 30.7812 110.695C31.1616 111.029 31.5136 111.394 31.8336 111.786C33.1099 113.309 33.8765 115.196 34.025 117.179C34.6564 122.385 35.5603 129.911 36.6869 139.246C39.0022 158.003 42.2212 184.087 45.8488 213.543V213.84H46.146L61.1393 213.53C77.346 213.27 92.7975 213.158 106.825 213.53C110.329 213.642 113.746 213.791 117.064 214.051L119.54 214.262C120.345 214.336 121.138 214.473 121.942 214.584C123.497 214.717 124.983 215.289 126.226 216.233C128.604 218.111 130.662 220.363 132.318 222.903C133.925 225.222 135.393 227.636 136.713 230.13C140.734 237.702 144.018 245.644 146.519 253.846C147.227 256.07 147.781 258.34 148.178 260.64C148.276 261.239 148.338 261.844 148.363 262.45C148.363 262.859 148.363 263.07 148.363 263.07C148.394 262.865 148.415 262.658 148.425 262.45C148.422 261.836 148.376 261.223 148.289 260.615C147.947 258.299 147.434 256.012 146.754 253.772C145.912 250.834 144.736 247.301 143.176 243.259C141.409 238.696 139.383 234.239 137.109 229.907C135.784 227.391 134.317 224.953 132.714 222.605C131.032 220.009 128.941 217.702 126.523 215.774L125.508 215.117C125.149 214.919 124.765 214.77 124.406 214.584C124.047 214.398 123.614 214.336 123.168 214.212C122.722 214.088 122.363 214.088 121.93 214.026C121.125 213.915 120.308 213.766 119.454 213.692L116.978 213.468C113.659 213.196 110.23 213.047 106.726 212.923C92.6737 212.489 77.2222 212.576 61.0032 212.836L45.9974 213.158L46.3317 213.456C42.6174 184 39.3117 157.929 36.9469 139.184C35.7088 129.849 34.7679 122.336 34.0869 117.141C33.9102 115.124 33.0997 113.214 31.7717 111.687C31.3779 111.174 30.9106 110.723 30.385 110.348Z" fill="#777C85"/>
<path d="M124.468 219.233C124.313 219.27 124.156 219.299 123.998 219.32C123.688 219.32 123.23 219.444 122.623 219.58C120.871 219.942 119.162 220.487 117.522 221.204C114.904 222.299 112.483 223.815 110.354 225.692C109.005 226.843 107.762 228.113 106.64 229.486L105.005 231.866L104.584 232.486L104.238 233.168L103.544 234.531C103.309 235.003 103.061 235.461 102.826 235.945C102.591 236.428 102.455 236.949 102.257 237.457C101.898 238.486 101.489 239.515 101.155 240.606C100.548 242.889 100.11 245.214 99.8424 247.561C99.7186 248.801 99.5328 250.04 99.4586 251.28C99.3843 252.52 99.4586 253.834 99.4586 255.148C99.3719 257.752 99.6071 260.467 99.6814 263.231C100.177 274.302 100.92 286.451 101.947 299.183C103.074 313.564 104.3 327.152 105.513 339.09L105.228 338.83L143.163 339.152L153.922 339.289L156.77 339.351H157.501H157.748C157.748 339.351 157.662 339.351 157.501 339.351H156.77H153.922H143.163L105.216 339.487H104.956V339.227C103.718 327.288 102.48 313.688 101.316 299.307C100.35 286.55 99.5576 274.389 99.0995 263.355C99.0252 260.578 98.8024 257.888 98.9014 255.247C98.9014 253.933 98.9014 252.631 98.9014 251.355C98.9014 250.078 99.1738 248.875 99.2976 247.635C99.5778 245.261 100.037 242.911 100.672 240.606C101.006 239.503 101.44 238.461 101.799 237.42C101.997 236.899 102.158 236.379 102.38 235.883L103.123 234.469L103.841 233.081L104.2 232.399C104.337 232.188 104.485 231.978 104.634 231.779L106.305 229.374C107.43 227.992 108.673 226.71 110.02 225.543C112.187 223.672 114.652 222.176 117.312 221.118C118.991 220.376 120.747 219.828 122.549 219.481C123.156 219.37 123.626 219.32 123.948 219.283C124.12 219.253 124.294 219.236 124.468 219.233Z" fill="#777C85"/>
<path d="M123.676 392.795C123.502 392.795 123.354 381.191 123.354 366.873C123.354 352.554 123.502 340.937 123.676 340.937C123.849 340.937 123.998 352.541 123.998 366.873C123.998 381.204 123.861 392.795 123.676 392.795Z" fill="#777C85"/>
<path d="M285.21 167.053L212.076 173.673C211.399 173.734 210.826 174.2 210.627 174.851L194.359 227.118C194.206 227.627 193.82 228.033 193.319 228.209L165.226 235.87C164.362 236.147 163.876 237.064 164.132 237.936C164.387 238.807 165.291 239.316 166.167 239.081L196.389 232.672L264.361 224.18C264.977 224.107 265.504 223.702 265.735 223.126L286.919 169.346C287.13 168.804 287.048 168.192 286.7 167.725C286.353 167.259 285.789 167.005 285.21 167.053Z" fill="#E0E0E0"/>
<path d="M285.21 167.053C285.426 167.004 285.65 167.004 285.866 167.053C286.52 167.24 287.004 167.793 287.104 168.466C287.124 168.952 287.018 169.435 286.795 169.867C286.609 170.363 286.399 170.896 286.176 171.466L284.628 175.483C282.264 181.533 278.846 190.298 274.587 201.232L267.53 219.233L266.564 221.713L266.082 222.952C265.943 223.46 265.627 223.9 265.19 224.192C264.969 224.333 264.72 224.422 264.46 224.452L263.779 224.552L262.417 224.713L259.668 225.06L248.216 226.51L196.439 233.019L180.74 236.317L172.704 238.027L168.631 238.883L166.6 239.317C166.224 239.434 165.827 239.468 165.437 239.416C165.022 239.339 164.642 239.135 164.347 238.833C163.881 238.341 163.694 237.646 163.852 236.985C164.009 236.325 164.489 235.789 165.127 235.56L193.244 227.911C193.711 227.738 194.054 227.334 194.148 226.845L194.668 225.171L195.708 221.849C196.401 219.642 197.082 217.452 197.751 215.278C199.113 210.939 200.442 206.683 201.738 202.509C204.338 194.153 206.814 186.174 209.166 178.57C209.463 177.628 209.761 176.686 210.045 175.756C210.177 175.262 210.351 174.781 210.565 174.318C210.867 173.833 211.364 173.503 211.927 173.413L217.61 172.904L228.419 171.95L247.671 170.239L275.231 167.846L282.66 167.227L284.579 167.09H285.223L284.579 167.177L282.672 167.388L275.244 168.107L247.708 170.685L228.468 172.471L217.66 173.462L212.014 173.983C211.604 174.047 211.242 174.287 211.023 174.64C210.841 175.067 210.687 175.506 210.565 175.954L209.699 178.781C207.346 186.368 204.87 194.348 202.27 202.72C200.982 206.902 199.662 211.163 198.308 215.502C197.64 217.675 196.959 219.865 196.265 222.072C195.931 223.176 195.584 224.279 195.238 225.395L194.718 227.068C194.564 227.75 194.074 228.306 193.418 228.544L165.338 236.205C164.905 236.36 164.58 236.723 164.472 237.171C164.365 237.618 164.49 238.089 164.805 238.424C165.004 238.626 165.258 238.764 165.536 238.821C165.84 238.857 166.148 238.827 166.44 238.734L168.482 238.3L172.543 237.432L180.591 235.734L196.327 232.399L248.117 225.977L259.569 224.564L262.318 224.217L263.68 224.056C264.108 224.054 264.532 223.957 264.918 223.771C265.254 223.558 265.497 223.226 265.599 222.841L266.094 221.601L267.06 219.122C269.635 212.638 272.012 206.625 274.179 201.158C278.524 190.248 281.991 181.508 284.393 175.471C285 173.971 285.532 172.644 285.99 171.479L286.634 169.892C286.86 169.487 286.971 169.029 286.956 168.565C286.88 167.93 286.447 167.395 285.842 167.189C285.637 167.122 285.425 167.076 285.21 167.053Z" fill="#263238"/>
<path d="M214.812 173.425C214.791 173.635 214.75 173.843 214.688 174.045C214.564 174.516 214.416 175.099 214.23 175.793C213.822 177.318 213.202 179.512 212.41 182.19C210.825 187.57 208.51 194.984 205.91 203.141C203.31 211.299 200.958 218.601 199.237 224.031L197.219 230.391L196.649 232.102C196.59 232.309 196.507 232.508 196.401 232.697C196.412 232.482 196.45 232.27 196.513 232.064C196.637 231.593 196.798 231.023 196.971 230.316C197.38 228.804 198.011 226.597 198.803 223.932C200.388 218.539 202.691 211.138 205.303 202.968C207.916 194.798 210.256 187.508 211.977 182.078L213.995 175.743L214.564 174.033C214.612 173.818 214.696 173.612 214.812 173.425Z" fill="#777C85"/>
<path d="M242.88 194.761C241.765 194.713 240.698 195.213 240.02 196.1C239.202 196.807 238.89 197.936 239.227 198.964C239.586 199.675 240.291 200.145 241.084 200.203C241.861 200.24 242.631 200.037 243.288 199.621C244.256 199.143 244.921 198.213 245.059 197.141C245.081 195.893 244.123 194.847 242.88 194.761Z" fill="white"/>
<path d="M233.978 171.293C233.734 170.801 233.54 170.286 233.396 169.756L231.984 165.491C230.746 161.896 229.1 156.962 227.032 151.556C224.964 146.151 222.959 141.329 221.448 137.919L219.628 133.692C219.379 133.197 219.18 132.677 219.034 132.142C219.359 132.59 219.633 133.072 219.851 133.58C220.346 134.522 221.015 135.899 221.82 137.622C223.429 141.056 225.534 145.866 227.577 151.259C229.62 156.652 231.291 161.648 232.356 165.28C232.901 167.103 233.309 168.578 233.594 169.607C233.792 170.151 233.921 170.717 233.978 171.293Z" fill="#263238"/>
<path d="M538 438.5C538 438.65 417.57 438.76 269 438.76C120.43 438.76 0 438.65 0 438.5C0 438.35 120.405 438.24 269 438.24C417.595 438.24 538 438.33 538 438.5Z" fill="#263238"/>
</svg>
