<svg width="20" height="20" viewBox="0 0 20 20" fill="none" xmlns="http://www.w3.org/2000/svg">
<path fill-rule="evenodd" clip-rule="evenodd" d="M1.81798 3.27292L3.68301 5.13795L4.05521 5.51015C2.70552 6.56536 1.63804 7.96824 1 9.59193C2.41514 13.1829 5.90797 15.7269 9.99795 15.7269C11.2659 15.7269 12.4765 15.4815 13.5849 15.0357L13.9325 15.3833L16.317 17.7719L17.3599 16.733L2.86092 2.22998L1.81798 3.27292ZM6.34152 7.79235L7.60532 9.05615C7.56851 9.23204 7.54397 9.40788 7.54397 9.59193C7.54397 10.9457 8.64416 12.0459 9.99795 12.0459C10.182 12.0459 10.3579 12.0214 10.5297 11.9846L11.7935 13.2484C11.2495 13.5183 10.6442 13.6819 9.99795 13.6819C7.74028 13.6819 5.90797 11.8496 5.90797 9.59193C5.90797 8.94573 6.07158 8.3404 6.34152 7.79235ZM9.99795 5.50198C12.2556 5.50198 14.0879 7.3343 14.0879 9.59197C14.0879 10.1196 13.9816 10.6226 13.7976 11.0848L16.1902 13.4774C17.4253 12.4468 18.3988 11.1134 19 9.59197C17.5808 6.00098 14.092 3.45701 9.99799 3.45701C8.85278 3.45701 7.7567 3.6615 6.73829 4.02959L8.50516 5.79236C8.96728 5.61241 9.47034 5.50198 9.99795 5.50198ZM9.86298 7.15022L12.4397 9.7269L12.4519 9.59193C12.4519 8.23814 11.3517 7.13795 9.99795 7.13795L9.86298 7.15022Z" fill="#DCDEE3"/>
</svg>
