<svg width="26" height="26" viewBox="0 0 26 26" fill="none" xmlns="http://www.w3.org/2000/svg">
<path fill-rule="evenodd" clip-rule="evenodd" d="M4 0C1.79086 0 0 1.79086 0 4V7.65517C0 9.86431 1.79086 11.6552 4 11.6552H7.65517C9.86431 11.6552 11.6552 9.86432 11.6552 7.65518V4C11.6552 1.79086 9.86432 0 7.65518 0H4ZM4 14.3448C1.79086 14.3448 0 16.1357 0 18.3448V22C0 24.2091 1.79086 26 4 26H7.65517C9.86431 26 11.6552 24.2091 11.6552 22V18.3448C11.6552 16.1357 9.86432 14.3448 7.65518 14.3448H4ZM14.3448 4C14.3448 1.79086 16.1357 0 18.3448 0H22C24.2091 0 26 1.79086 26 4V7.65518C26 9.86432 24.2091 11.6552 22 11.6552H18.3448C16.1357 11.6552 14.3448 9.86431 14.3448 7.65517V4ZM18.3448 14.3448C16.1357 14.3448 14.3448 16.1357 14.3448 18.3448V22C14.3448 24.2091 16.1357 26 18.3448 26H22C24.2091 26 26 24.2091 26 22V18.3448C26 16.1357 24.2091 14.3448 22 14.3448H18.3448Z" fill="#3ED0A3"/>
</svg>
