<svg width="20" height="20" viewBox="0 0 20 20" fill="none" xmlns="http://www.w3.org/2000/svg">
<path d="M9.99995 7.55182C8.64585 7.55182 7.54541 8.65226 7.54541 10.0064C7.54541 11.3605 8.64585 12.4609 9.99995 12.4609C11.3541 12.4609 12.4545 11.3605 12.4545 10.0064C12.4545 8.65226 11.354 7.55182 9.99995 7.55182Z" fill="#16284D"/>
<path fill-rule="evenodd" clip-rule="evenodd" d="M1 10.0064C2.41547 6.41451 5.90908 3.87 10 3.87C14.095 3.87 17.5845 6.41451 19 10.0064C17.5845 13.5982 14.095 16.1427 10 16.1427C5.90908 16.1427 2.41547 13.5982 1 10.0064ZM5.90908 10.0063C5.90908 12.2645 7.74182 14.0972 10 14.0972C12.2582 14.0972 14.0909 12.2645 14.0909 10.0064C14.0909 7.74817 12.2582 5.91543 10 5.91543C7.74182 5.91543 5.90908 7.74813 5.90908 10.0063Z" fill="#16284D"/>
</svg>
