<svg width="26" height="26" viewBox="0 0 26 26" fill="none" xmlns="http://www.w3.org/2000/svg">
<path fill-rule="evenodd" clip-rule="evenodd" d="M3 23.7864V5.95991C3 5.59221 3.29897 5.29324 3.67011 5.29324H6.94503C6.9519 2.38945 9.32305 0.00112704 12.2234 0.00112704C12.3459 0.00112704 12.4668 0.000713103 12.5861 0.000304316C14.4426 -0.00605307 15.9356 -0.0111657 17.4983 1.56127C18.4537 2.52004 19.0447 3.83963 19.0482 5.29324H22.3265C22.6942 5.29324 22.9932 5.59221 22.9932 5.95991V23.7864C22.9932 24.9995 22.0001 25.9995 20.787 25.9995H5.20619C3.99313 25.9995 3 24.9995 3 23.7864ZM18.8832 20.7967H7.11342C6.06874 20.7967 6.06874 22.7177 7.11342 22.7177H18.8832C19.9245 22.7177 19.9245 20.7967 18.8832 20.7967ZM17.7148 5.29324H8.28181C8.28524 4.20389 8.72854 3.21763 9.43989 2.50285C10.6289 1.30767 11.8235 1.31982 13.2705 1.33455C13.4336 1.33621 13.5999 1.3379 13.7698 1.3379C15.9416 1.3379 17.7045 3.11798 17.7148 5.29324Z" fill="#9AA1AF"/>
</svg>
