<svg width="26" height="26" viewBox="0 0 26 26" fill="none" xmlns="http://www.w3.org/2000/svg">
<path fill-rule="evenodd" clip-rule="evenodd" d="M23.6528 2.34668C24.9485 2.34816 25.9985 3.39818 26 4.6939V15.4031H0V4.6939C0.00148267 3.39818 1.0515 2.34816 2.34722 2.34668H23.6528ZM0 16.5767V17.0168C0.00148267 18.3125 1.0515 19.3626 2.34722 19.364H8.7554V20.5296L7.50156 22.7423C7.39867 22.924 7.40004 23.1467 7.50518 23.327C7.61031 23.5074 7.80337 23.6184 8.01215 23.6184H17.9878C18.1966 23.6184 18.3897 23.5074 18.4948 23.327C18.6 23.1467 18.6013 22.924 18.4984 22.7423L17.2446 20.5296V19.364H23.6528C24.9485 19.3626 25.9985 18.3125 26 17.0168V16.5767H0ZM16.071 20.0975H9.92901V19.5107H16.071V20.0975Z" fill="#9AA1AF"/>
</svg>
