<svg width="26" height="26" viewBox="0 0 26 26" fill="none" xmlns="http://www.w3.org/2000/svg">
<path fill-rule="evenodd" clip-rule="evenodd" d="M13 10.4678C15.44 10.4678 17.418 8.48978 17.418 6.0498C17.418 3.60983 15.44 1.63184 13 1.63184C10.56 1.63184 8.58203 3.60983 8.58203 6.0498C8.58203 8.48978 10.56 10.4678 13 10.4678ZM21.9375 10.4677C23.48 10.4677 24.7305 9.21727 24.7305 7.67475C24.7305 6.13224 23.48 4.88179 21.9375 4.88179C20.395 4.88179 19.1445 6.13224 19.1445 7.67475C19.1445 9.21727 20.395 10.4677 21.9375 10.4677ZM6.85547 7.67475C6.85547 9.21727 5.60501 10.4677 4.0625 10.4677C2.51999 10.4677 1.26953 9.21727 1.26953 7.67475C1.26953 6.13224 2.51999 4.88179 4.0625 4.88179C5.60501 4.88179 6.85547 6.13224 6.85547 7.67475ZM3.84629 12.1916C4.93307 12.1805 5.83231 12.1713 6.81434 12.9759C4.51171 15.3267 4.55245 17.8032 4.60467 20.9772C4.61274 21.4681 4.62109 21.9756 4.62109 22.5019C4.62109 22.5261 4.62639 22.5468 4.63092 22.5645C4.63576 22.5835 4.63972 22.599 4.63537 22.6116C4.6158 22.6685 4.42812 22.6674 3.39662 22.6614C2.94386 22.6588 2.32853 22.6553 1.49348 22.6553C0.669805 22.6553 0 21.988 0 21.1674V15.6216C0 13.732 1.5468 12.1943 3.44805 12.1943C3.58378 12.1943 3.71638 12.193 3.84629 12.1916ZM14.2091 12.2146C11.9887 12.0294 10.0588 12.2167 8.39414 13.5908C6.00612 15.5036 6.05916 17.9844 6.12298 20.9691C6.13361 21.4661 6.14453 21.9772 6.14453 22.5019C6.14453 23.4743 6.9357 24.2802 7.92289 24.2802C10.0145 24.2802 11.7142 24.2934 13.1001 24.3041H13.1002C18.8164 24.3484 19.1925 24.3513 19.7041 23.2184L19.707 23.2119C19.7333 23.1517 19.7554 23.1014 19.7738 23.0498C19.8675 22.7867 19.8665 22.4898 19.8602 20.6802C19.8581 20.0828 19.8555 19.3204 19.8555 18.3398C19.8555 14.7229 16.7236 12.2146 14.2091 12.2146ZM22.1544 12.1917C22.284 12.193 22.4163 12.1943 22.552 12.1943C24.4532 12.1943 26 13.7319 26 15.6215V21.1145C26 21.9641 25.3063 22.6552 24.4532 22.6552C21.7725 22.6552 21.4042 22.6954 21.3712 22.6083C21.3619 22.584 21.3789 22.5497 21.3789 22.5019C21.3789 21.9564 21.3866 21.4361 21.394 20.9379C21.4428 17.6486 21.4774 15.3156 19.1857 12.9758C20.1671 12.1717 21.0625 12.1807 22.1544 12.1917Z" fill="#9AA1AF"/>
</svg>
