<svg width="266" height="240" viewBox="0 0 266 240" fill="none" xmlns="http://www.w3.org/2000/svg">
<path d="M209.893 9.54624C176.874 -19.1261 166.36 24.1117 150.857 43.2905C133.143 65.1935 116.517 64.1258 90.9457 63.9752C59.5491 63.7835 21.52 69.0882 13.0121 106.255C7.39261 130.793 22.4099 158.35 44.6551 168.692C74.2515 182.457 92.3283 165.763 115.6 149.808C139.119 133.688 149.208 135.749 176.244 131.183C233.74 121.471 255.116 48.8142 209.893 9.54624Z" fill="#3ED0A3"/>
<path opacity="0.8" d="M209.893 9.54624C176.874 -19.1261 166.36 24.1117 150.857 43.2905C133.143 65.1935 116.517 64.1258 90.9457 63.9752C59.5491 63.7835 21.52 69.0882 13.0121 106.255C7.39261 130.793 22.4099 158.35 44.6551 168.692C74.2515 182.457 92.3283 165.763 115.6 149.808C139.119 133.688 149.208 135.749 176.244 131.183C233.74 121.471 255.116 48.8142 209.893 9.54624Z" fill="white"/>
<ellipse cx="132.712" cy="232.252" rx="132.712" ry="7.74819" fill="#F5F5F5"/>
<path d="M69.1784 106.022C69.9668 106.369 70.8014 106.599 71.6561 106.706C73.4133 106.92 75.1897 106.508 76.6733 105.543C79.021 104.023 80.4447 101.36 80.2188 98.9101C80.1939 98.6617 79.9825 98.474 79.7329 98.4789C75.43 98.448 71.3411 100.353 68.5966 103.667C67.9532 100.929 67.385 98.034 66.9744 95.0497C68.1133 95.9219 69.452 96.4959 70.869 96.7198C71.4555 96.7909 72.0498 96.7655 72.6281 96.6445C75.6876 96.0148 78.1038 92.7362 80.3078 89.2796C80.3899 89.1543 80.4148 89 80.3763 88.8552C80.3389 88.715 80.2373 88.6008 80.1025 88.5472C74.5241 86.22 68.6102 91.2509 66.7211 93.0647C66.4339 90.5512 66.2808 88.0242 66.2625 85.4945C67.4561 85.8744 68.6818 86.1447 69.9244 86.3022C72.9292 86.6512 75.4549 86.131 77.2619 84.7347C79.4043 83.092 80.3968 80.361 80.1299 76.8496C80.1184 76.7137 80.0504 76.5887 79.9423 76.5054C79.8343 76.4221 79.6962 76.388 79.5617 76.4116C73.2099 77.3356 68.3296 81.4014 66.2967 83.3589C66.2967 82.9072 66.2967 82.4554 66.3447 81.99C66.3523 81.8779 66.3208 81.7667 66.2557 81.6751C66.1425 79.9358 65.2526 78.3396 63.8327 77.3288C62.2378 76.2952 60.0065 76.1583 57.1933 76.9112C57.0258 76.9594 56.8865 77.0763 56.81 77.2329C56.7344 77.3813 56.7344 77.5569 56.81 77.7052C56.9264 77.9037 59.3836 82.0516 63.7163 82.565C64.1854 82.6063 64.6572 82.6063 65.1263 82.565C65.0715 83.8107 65.051 85.0633 65.0715 86.3158C62.0185 83.6982 57.966 82.5611 53.9968 83.2084C53.8419 83.2334 53.7023 83.3166 53.6067 83.4411C53.5151 83.5621 53.4802 83.7168 53.5109 83.8654C54.3733 88.1023 56.4609 90.9565 59.0961 91.4904C59.2125 91.4904 59.3357 91.5315 59.4657 91.552C60.8347 91.7095 62.7923 91.3056 65.1742 89.04C65.342 91.9351 65.6688 94.8188 66.153 97.678C63.8532 96.1927 58.5759 93.4754 53.8805 96.1174C53.6342 96.2479 53.5251 96.5425 53.6272 96.8019C55.5369 100.662 57.6177 102.675 59.9996 102.962H60.0612C62.0462 103.174 64.168 102.189 66.5705 99.9778C67.1113 102.77 67.7547 105.454 68.4391 107.945C66.2214 106.09 63.3877 106.008 59.6848 107.671C59.5207 107.747 59.3999 107.893 59.3562 108.068C59.3124 108.236 59.3621 108.413 59.4863 108.534C59.6437 108.691 62.3337 111.272 65.6465 111.648C66.9122 111.807 68.1966 111.585 69.3358 111.011C70.6934 115.569 72.3488 120.032 74.2913 124.372C74.3707 124.539 74.5321 124.651 74.7157 124.667C74.8377 124.678 74.9606 124.657 75.0716 124.605C75.3639 124.463 75.4957 124.119 75.3728 123.818C72.8158 118.069 70.7438 112.116 69.1784 106.022Z" fill="#3ED0A3"/>
<g opacity="0.6">
<path d="M69.1784 106.022C69.9668 106.369 70.8014 106.599 71.6561 106.706C73.4133 106.92 75.1897 106.508 76.6733 105.543C79.021 104.023 80.4447 101.36 80.2188 98.9101C80.1939 98.6617 79.9825 98.474 79.7329 98.4789C75.43 98.448 71.3411 100.353 68.5966 103.667C67.9532 100.929 67.385 98.034 66.9744 95.0497C68.1133 95.9219 69.452 96.4959 70.869 96.7198C71.4555 96.7909 72.0498 96.7655 72.6281 96.6445C75.6876 96.0148 78.1038 92.7362 80.3078 89.2796C80.3899 89.1543 80.4148 89 80.3763 88.8552C80.3389 88.715 80.2373 88.6008 80.1025 88.5472C74.5241 86.22 68.6102 91.2509 66.7211 93.0647C66.4339 90.5512 66.2808 88.0242 66.2625 85.4945C67.4561 85.8744 68.6818 86.1447 69.9244 86.3022C72.9292 86.6512 75.4549 86.131 77.2619 84.7347C79.4043 83.092 80.3968 80.361 80.1299 76.8496C80.1184 76.7137 80.0504 76.5887 79.9423 76.5054C79.8343 76.4221 79.6962 76.388 79.5617 76.4116C73.2099 77.3356 68.3296 81.4014 66.2967 83.3589C66.2967 82.9072 66.2967 82.4554 66.3447 81.99C66.3523 81.8779 66.3208 81.7667 66.2557 81.6751C66.1425 79.9358 65.2526 78.3396 63.8327 77.3288C62.2378 76.2952 60.0065 76.1583 57.1933 76.9112C57.0258 76.9594 56.8865 77.0763 56.81 77.2329C56.7344 77.3813 56.7344 77.5569 56.81 77.7052C56.9264 77.9037 59.3836 82.0516 63.7163 82.565C64.1854 82.6063 64.6572 82.6063 65.1263 82.565C65.0715 83.8107 65.051 85.0633 65.0715 86.3158C62.0185 83.6982 57.966 82.5611 53.9968 83.2084C53.8419 83.2334 53.7023 83.3166 53.6067 83.4411C53.5151 83.5621 53.4802 83.7168 53.5109 83.8654C54.3733 88.1023 56.4609 90.9565 59.0961 91.4904C59.2125 91.4904 59.3357 91.5315 59.4657 91.552C60.8347 91.7095 62.7923 91.3056 65.1742 89.04C65.342 91.9351 65.6688 94.8188 66.153 97.678C63.8532 96.1927 58.5759 93.4754 53.8805 96.1174C53.6342 96.2479 53.5251 96.5425 53.6272 96.8019C55.5369 100.662 57.6177 102.675 59.9996 102.962H60.0612C62.0462 103.174 64.168 102.189 66.5705 99.9778C67.1113 102.77 67.7547 105.454 68.4391 107.945C66.2214 106.09 63.3877 106.008 59.6848 107.671C59.5207 107.747 59.3999 107.893 59.3562 108.068C59.3124 108.236 59.3621 108.413 59.4863 108.534C59.6437 108.691 62.3337 111.272 65.6465 111.648C66.9122 111.807 68.1966 111.585 69.3358 111.011C70.6934 115.569 72.3488 120.032 74.2913 124.372C74.3707 124.539 74.5321 124.651 74.7157 124.667C74.8377 124.678 74.9606 124.657 75.0716 124.605C75.3639 124.463 75.4957 124.119 75.3728 123.818C72.8158 118.069 70.7438 112.116 69.1784 106.022Z" fill="black"/>
</g>
<rect x="77.1758" y="89.9434" width="175.347" height="111.774" rx="7.19" fill="#3ED0A3"/>
<rect opacity="0.6" x="77.1758" y="89.9434" width="175.347" height="111.774" rx="7.19" fill="black"/>
<path d="M187.278 232.251H146.333C150.344 217.124 147.942 200.827 139.133 185.707H180.078C188.887 200.827 191.289 217.124 187.278 232.251Z" fill="#3ED0A3"/>
<path d="M185.141 232.251H144.189C148.2 217.124 145.804 200.827 136.988 185.707H177.94C186.783 200.827 189.152 217.124 185.141 232.251Z" fill="#3ED0A3"/>
<path d="M186.537 207.446H145.14C143.719 199.782 140.959 192.428 136.988 185.721H178.385C182.35 192.431 185.109 199.784 186.537 207.446Z" fill="#3ED0A3"/>
<g opacity="0.4">
<path d="M187.274 232.251H146.33C150.341 217.124 147.938 200.827 139.129 185.707H180.074C188.883 200.827 191.285 217.124 187.274 232.251Z" fill="black"/>
<path d="M185.141 232.251H144.189C148.2 217.124 145.804 200.827 136.988 185.707H177.94C186.783 200.827 189.152 217.124 185.141 232.251Z" fill="black"/>
<path d="M186.537 207.446H145.14C143.719 199.782 140.959 192.428 136.988 185.721H178.385C182.35 192.431 185.109 199.784 186.537 207.446Z" fill="black"/>
</g>
<path d="M185.141 232.251H144.189C148.2 217.124 145.804 200.827 136.988 185.707H177.94C186.783 200.827 189.152 217.124 185.141 232.251Z" fill="#3ED0A3"/>
<path opacity="0.2" d="M185.141 232.251H144.189C148.2 217.124 145.804 200.827 136.988 185.707H177.94C186.783 200.827 189.152 217.124 185.141 232.251Z" fill="black"/>
<path opacity="0.2" d="M186.1 207.446H145.1C143.69 199.79 140.957 192.438 137.023 185.721H178.023C181.957 192.438 184.69 199.79 186.1 207.446Z" fill="black"/>
<rect x="74.8477" y="89.9434" width="175.347" height="111.774" rx="7.19" fill="#3ED0A3"/>
<rect opacity="0.3" x="74.8477" y="89.9434" width="175.347" height="111.774" rx="7.19" fill="black"/>
<path d="M177.545 229.014H130.796C129.008 229.014 127.559 230.463 127.559 232.251H180.783C180.783 230.463 179.333 229.014 177.545 229.014V229.014Z" fill="#3ED0A3"/>
<path opacity="0.3" d="M177.545 229.014H130.796C129.008 229.014 127.559 230.463 127.559 232.251H180.783C180.783 230.463 179.333 229.014 177.545 229.014V229.014Z" fill="black"/>
<rect x="74.8477" y="95.6035" width="175.347" height="90.0966" fill="#3ED0A3"/>
<rect opacity="0.84" x="74.7852" y="95.6035" width="175.347" height="90.0966" fill="#FAFAFA"/>
<rect opacity="0.23" x="104.637" y="102.564" width="122.02" height="72.9917" rx="2.84" fill="#3ED0A3"/>
<path opacity="0.67" d="M226.141 107.59V173.614C226.141 174.687 225.271 175.558 224.197 175.558H106.065C104.993 175.554 104.125 174.686 104.121 173.614V107.59H226.141Z" fill="#FAFAFA"/>
<rect opacity="0.41" x="104.477" y="110.176" width="121.308" height="62.8" fill="white"/>
<path opacity="0.19" fill-rule="evenodd" clip-rule="evenodd" d="M184.895 137.412C184.895 146.315 192.111 153.531 201.014 153.531C209.911 153.52 217.122 146.31 217.133 137.412C217.133 128.51 209.916 121.293 201.014 121.293C192.111 121.293 184.895 128.51 184.895 137.412ZM186.28 131.309C188.748 125.35 194.563 121.464 201.014 121.464C209.819 121.472 216.954 128.607 216.962 137.412C216.962 143.863 213.076 149.678 207.117 152.146C201.157 154.615 194.298 153.25 189.737 148.689C185.176 144.128 183.811 137.269 186.28 131.309Z" fill="#3ED0A3"/>
<path opacity="0.19" fill-rule="evenodd" clip-rule="evenodd" d="M157.797 137.412C157.797 146.315 165.014 153.531 173.916 153.531C182.812 153.516 190.02 146.308 190.035 137.412C190.035 128.51 182.819 121.293 173.916 121.293C165.014 121.293 157.797 128.51 157.797 137.412ZM159.182 131.309C161.65 125.35 167.466 121.464 173.916 121.464C182.719 121.475 189.853 128.609 189.864 137.412C189.864 143.863 185.979 149.678 180.019 152.146C174.06 154.615 167.2 153.25 162.639 148.689C158.078 144.128 156.714 137.269 159.182 131.309Z" fill="#3ED0A3"/>
<path opacity="0.19" fill-rule="evenodd" clip-rule="evenodd" d="M121.911 162.538H217.052C217.075 162.538 217.097 162.528 217.112 162.511C217.128 162.494 217.136 162.472 217.134 162.449V159.8C217.136 159.777 217.128 159.754 217.112 159.737C217.097 159.72 217.075 159.711 217.052 159.711H121.911C121.888 159.711 121.866 159.72 121.85 159.737C121.834 159.754 121.826 159.777 121.828 159.8V162.449C121.826 162.472 121.834 162.494 121.85 162.511C121.866 162.528 121.888 162.538 121.911 162.538ZM216.963 162.367H121.972V159.882H216.963V162.367Z" fill="#3ED0A3"/>
<path opacity="0.19" fill-rule="evenodd" clip-rule="evenodd" d="M107.907 167.165H222.377C222.403 167.166 222.428 167.154 222.444 167.134C222.46 167.114 222.466 167.087 222.459 167.062V116.069C222.461 116.047 222.453 116.024 222.438 116.007C222.422 115.99 222.4 115.98 222.377 115.98H107.907C107.884 115.98 107.862 115.99 107.846 116.007C107.83 116.024 107.823 116.047 107.825 116.069V167.076C107.823 167.099 107.83 167.122 107.846 167.139C107.862 167.156 107.884 167.165 107.907 167.165ZM222.322 166.994H108.016L107.996 116.152H222.322V166.994Z" fill="#3ED0A3"/>
<path d="M220.852 105.091C220.849 105.51 221.099 105.889 221.485 106.051C221.871 106.213 222.316 106.126 222.614 105.831C222.911 105.536 223 105.091 222.841 104.704C222.681 104.317 222.304 104.064 221.885 104.064C221.612 104.063 221.349 104.17 221.155 104.363C220.961 104.556 220.852 104.818 220.852 105.091Z" fill="white"/>
<circle cx="218.221" cy="105.09" r="1.03355" fill="white"/>
<circle cx="214.561" cy="105.09" r="1.03355" fill="white"/>
<rect x="104.121" y="107.459" width="122.02" height="0.260098" fill="#3ED0A3"/>
<path opacity="0.47" d="M121.711 95.6035L105.605 185.7H121.547L137.652 95.6035H121.711Z" fill="#FAFAFA"/>
<path opacity="0.47" d="M141.54 95.6035L125.441 185.7H133.409L149.514 95.6035H141.54Z" fill="#FAFAFA"/>
<path opacity="0.4" d="M230.633 95.6035L214.527 185.7H218.518L234.616 95.6035H230.633Z" fill="white"/>
<path opacity="0.4" d="M223.617 95.6035L207.512 185.7H211.502L227.601 95.6035H223.617Z" fill="white"/>
<path d="M188.679 229.014H180.308C178.52 229.014 177.07 230.463 177.07 232.251H191.91C191.911 231.393 191.572 230.57 190.966 229.962C190.36 229.355 189.537 229.014 188.679 229.014V229.014Z" fill="#3ED0A3"/>
<path opacity="0.4" d="M188.679 229.014H180.308C178.52 229.014 177.07 230.463 177.07 232.251H191.91C191.911 231.393 191.572 230.57 190.966 229.962C190.36 229.355 189.537 229.014 188.679 229.014V229.014Z" fill="black"/>
<path d="M165.876 193.914C165.876 195.767 164.374 197.268 162.522 197.268C160.67 197.268 159.168 195.767 159.168 193.914C159.168 192.062 160.67 190.561 162.522 190.561C164.374 190.561 165.876 192.062 165.876 193.914Z" fill="#3ED0A3"/>
<path opacity="0.5" d="M165.876 193.914C165.876 195.767 164.374 197.268 162.522 197.268C160.67 197.268 159.168 195.767 159.168 193.914C159.168 192.062 160.67 190.561 162.522 190.561C164.374 190.561 165.876 192.062 165.876 193.914Z" fill="black"/>
<path d="M133.861 220.686C133.389 204.3 133.43 104.374 134.382 96.1673L135.675 94.3809C135.675 94.3809 135.08 95.9688 134.936 124.053C134.792 152.136 134.601 216.517 134.758 220.686H133.861Z" fill="#3ED0A3"/>
<path d="M141.55 159.91C147.026 150.793 153.022 144.311 157.361 140.745C161.701 137.179 150.325 160.335 145.876 168.952C141.427 177.57 135.944 187.097 134.178 195.147C133.836 178.774 136.068 169.027 141.55 159.91Z" fill="#3ED0A3"/>
<path d="M134.285 97.3165C135.408 86.9537 133.888 77.3779 139.528 65.2423C145.168 53.1067 149.46 43.5789 154.901 39.1504C156.209 38.0826 151.739 59.1779 146.544 71.0603C142.882 79.445 141.705 85.4341 137.817 91.0878C136.907 92.402 134.285 97.3165 134.285 97.3165Z" fill="#3ED0A3"/>
<path d="M134.258 152.608C135.394 139.815 136.421 127.495 143.765 109.295C145.552 104.86 162.109 73.8669 166.428 70.513C168.543 68.8634 161.144 89.4591 153.916 106.79C148.502 119.795 146.257 123.518 140.226 138.604C137.865 144.579 134.258 152.608 134.258 152.608Z" fill="#3ED0A3"/>
<path d="M124.622 89.4791C118.461 81.1355 112.507 75.4954 108.133 72.5454C103.759 69.5953 115.662 90.1088 121.384 99.0617C127.106 108.015 132.288 115.783 134.656 123.545C133.52 107.207 130.782 97.8296 124.622 89.4791Z" fill="#3ED0A3"/>
<path d="M134.26 175.278C133.096 166.38 130.701 155.928 127.278 148.18C123.856 140.432 118.586 128.55 114.397 124.518C113.39 123.546 118.777 146.661 122.241 152.807C125.704 158.954 128.237 164.751 130.413 168.235C131.139 169.364 134.26 175.278 134.26 175.278Z" fill="#3ED0A3"/>
<path opacity="0.5" d="M133.861 220.686C133.389 204.3 133.43 104.374 134.382 96.1673L135.675 94.3809C135.675 94.3809 135.08 95.9688 134.936 124.053C134.792 152.136 134.601 216.517 134.758 220.686H133.861Z" fill="white"/>
<path opacity="0.5" d="M141.55 159.91C147.026 150.793 153.022 144.311 157.361 140.745C161.701 137.179 150.325 160.335 145.876 168.952C141.427 177.57 135.944 187.097 134.178 195.147C133.836 178.774 136.068 169.027 141.55 159.91Z" fill="white"/>
<path opacity="0.5" d="M134.285 97.3165C135.408 86.9537 133.888 77.3779 139.528 65.2423C145.168 53.1067 149.46 43.5789 154.901 39.1504C156.209 38.0826 151.739 59.1779 146.544 71.0603C142.882 79.445 141.705 85.4341 137.817 91.0878C136.907 92.402 134.285 97.3165 134.285 97.3165Z" fill="white"/>
<path opacity="0.5" d="M134.258 152.608C135.394 139.815 136.421 127.495 143.765 109.295C145.552 104.86 162.109 73.8669 166.428 70.513C168.543 68.8634 161.144 89.4591 153.916 106.79C148.502 119.795 146.257 123.518 140.226 138.604C137.865 144.579 134.258 152.608 134.258 152.608Z" fill="white"/>
<path opacity="0.5" d="M124.622 89.4791C118.461 81.1355 112.507 75.4954 108.133 72.5454C103.759 69.5953 115.662 90.1088 121.384 99.0617C127.106 108.015 132.288 115.783 134.656 123.545C133.52 107.207 130.782 97.8296 124.622 89.4791Z" fill="white"/>
<path opacity="0.5" d="M134.26 175.278C133.096 166.38 130.701 155.928 127.278 148.18C123.856 140.432 118.586 128.55 114.397 124.518C113.39 123.546 118.777 146.661 122.241 152.807C125.704 158.954 128.237 164.751 130.413 168.235C131.139 169.364 134.26 175.278 134.26 175.278Z" fill="white"/>
<path d="M147.29 232.253H121.348L119.391 217.346H149.247L147.29 232.253Z" fill="#263238"/>
<path d="M151.177 219.084H117.453L116.488 214.053H152.142L151.177 219.084Z" fill="#263238"/>
<rect x="37.0312" y="105.852" width="86.7427" height="126.401" rx="6.99" fill="#3ED0A3"/>
<rect opacity="0.6" x="37.0312" y="105.852" width="86.7427" height="126.401" rx="6.99" fill="black"/>
<rect x="34.7383" y="105.852" width="86.7427" height="126.401" rx="6.99" fill="#3ED0A3"/>
<rect opacity="0.3" x="34.7383" y="105.852" width="86.7427" height="126.401" rx="6.99" fill="black"/>
<rect x="34.7383" y="111.342" width="86.7427" height="109.72" fill="#FAFAFA"/>
<rect opacity="0.1" x="34.7383" y="111.342" width="86.7427" height="109.72" fill="#3ED0A3"/>
<path opacity="0.48" d="M65.4902 111.615L45.6406 221.336H60.8016L80.6512 111.615H65.4902Z" fill="#FAFAFA"/>
<path opacity="0.48" d="M85.1582 111.342L65.3086 221.069H72.8857L92.7353 111.342H85.1582Z" fill="#FAFAFA"/>
<circle cx="78.1057" cy="226.592" r="3.25807" fill="#3ED0A3"/>
<circle opacity="0.5" cx="78.1057" cy="226.592" r="3.25807" fill="black"/>
<path d="M78.8574 108.378C78.8574 108.682 78.674 108.957 78.3926 109.074C78.1113 109.19 77.7874 109.126 77.5721 108.91C77.3568 108.695 77.2924 108.371 77.4089 108.09C77.5254 107.808 77.8 107.625 78.1045 107.625C78.5203 107.625 78.8574 107.962 78.8574 108.378Z" fill="#3ED0A3"/>
<path opacity="0.5" d="M78.8574 108.378C78.8574 108.682 78.674 108.957 78.3926 109.074C78.1113 109.19 77.7874 109.126 77.5721 108.91C77.3568 108.695 77.2924 108.371 77.4089 108.09C77.5254 107.808 77.8 107.625 78.1045 107.625C78.5203 107.625 78.8574 107.962 78.8574 108.378Z" fill="black"/>
<path d="M182.242 79.3414L182.756 78.1504L187.684 83.6877L183.419 84.0163L182.242 79.3414Z" fill="#E58A7B"/>
<rect x="114.273" y="25.4941" width="2.05341" height="0.684469" fill="#3ED0A3"/>
<rect x="97.7578" y="40.5859" width="0.574954" height="1.71802" fill="#3ED0A3"/>
<rect x="26.0391" y="157.762" width="0.574954" height="1.71802" fill="#3ED0A3"/>
<path d="M225.46 51.4629C224.776 54.8852 223.283 61.7299 225.665 64.0229C225.665 64.0229 224.734 67.4452 218.417 67.4452C211.463 67.4452 215.09 64.0229 215.09 64.0229C218.889 63.1194 218.786 60.3062 218.129 57.6642L225.46 51.4629Z" fill="#E58A7B"/>
<path d="M211.617 65.1934C211.617 64.6801 212.397 64.153 213.534 63.7423C214.143 63.5165 214.738 62.6609 215.662 62.5034C216.347 62.3871 217.23 62.9757 218.106 62.9141C218.838 62.8594 219.605 62.1475 220.454 62.1407C221.302 62.1338 221.987 62.8251 222.822 62.8731C223.342 62.8731 223.862 62.2433 224.3 62.2844C224.738 62.3255 225.211 63.0716 225.628 63.1468C226.183 63.2427 226.806 62.6883 227.182 62.8115C227.784 63.0031 227.866 63.8176 228.133 64.0367C228.9 64.6595 229.502 65.2482 228.818 65.3577C227.127 65.6246 227.059 64.6732 225.348 64.6732C223.636 64.6732 223.636 65.3577 221.925 65.3235C220.214 65.2892 220.221 64.639 218.503 64.639C216.785 64.639 216.819 65.1113 215.081 65.2892C213.931 65.4819 212.755 65.4493 211.617 65.1934Z" fill="#3ED0A3"/>
<g opacity="0.6">
<path d="M211.617 65.1934C211.617 64.6801 212.397 64.153 213.534 63.7423C214.143 63.5165 214.738 62.6609 215.662 62.5034C216.347 62.3871 217.23 62.9757 218.106 62.9141C218.838 62.8594 219.605 62.1475 220.454 62.1407C221.302 62.1338 221.987 62.8251 222.822 62.8731C223.342 62.8731 223.862 62.2433 224.3 62.2844C224.738 62.3255 225.211 63.0716 225.628 63.1468C226.183 63.2427 226.806 62.6883 227.182 62.8115C227.784 63.0031 227.866 63.8176 228.133 64.0367C228.9 64.6595 229.502 65.2482 228.818 65.3577C227.127 65.6246 227.059 64.6732 225.348 64.6732C223.636 64.6732 223.636 65.3577 221.925 65.3235C220.214 65.2892 220.221 64.639 218.503 64.639C216.785 64.639 216.819 65.1113 215.081 65.2892C213.931 65.4819 212.755 65.4493 211.617 65.1934Z" fill="black"/>
</g>
<path d="M237.889 71.3945C238.779 73.2768 239.477 75.077 240.182 76.9524C240.887 78.8279 241.455 80.717 242.003 82.6267C242.557 84.5554 243.014 86.5109 243.372 88.4857C243.536 89.4782 243.707 90.4707 243.817 91.4905C243.885 91.9902 243.947 92.4967 243.981 93.0101L244.097 94.5843C244.127 95.886 243.894 97.1803 243.413 98.39C243.019 99.4048 242.55 100.389 242.01 101.333C240.989 103.091 239.846 104.775 238.587 106.371C236.15 109.464 233.477 112.363 230.593 115.043L228.457 113.072C229.586 111.58 230.743 110.046 231.825 108.5C232.906 106.953 233.988 105.406 234.966 103.825C235.948 102.283 236.834 100.683 237.622 99.0334C237.984 98.2788 238.291 97.4987 238.539 96.6993C238.74 96.107 238.833 95.4833 238.813 94.8581L238.642 93.5645C238.594 93.1196 238.519 92.6747 238.43 92.1955C238.286 91.3057 238.088 90.4091 237.889 89.5193C237.691 88.6295 237.465 87.7396 237.205 86.8498C236.944 85.96 236.712 85.0702 236.438 84.1873C235.897 82.4213 235.274 80.6622 234.631 78.9237C233.988 77.1851 233.262 75.4192 232.578 73.797L237.889 71.3945Z" fill="#E58A7B"/>
<path d="M235.555 65.3304C237.937 65.8506 240.476 74.4202 240.476 74.4202L231.099 80.4024C231.099 80.4024 228.156 73.5578 229.292 70.5735C230.483 67.4934 232.742 64.7144 235.555 65.3304Z" fill="#3ED0A3"/>
<path opacity="0.6" d="M235.555 65.3304C237.937 65.8506 240.476 74.4202 240.476 74.4202L231.099 80.4024C231.099 80.4024 228.156 73.5578 229.292 70.5735C230.483 67.4934 232.742 64.7144 235.555 65.3304Z" fill="white"/>
<path opacity="0.28" d="M234.281 68.2461L231.078 80.3475V80.4023L234.829 78.0066L234.281 68.2461Z" fill="#3ED0A3"/>
<path d="M205.395 65.4945C205.395 65.4945 202.658 66.4596 208.133 100.094H231.405C231.015 90.6213 231.001 84.776 235.512 65.3302C232.251 64.6571 228.945 64.2202 225.621 64.0229C222.101 63.7762 218.567 63.7762 215.046 64.0229C210.549 64.4404 205.395 65.4945 205.395 65.4945Z" fill="#3ED0A3"/>
<path opacity="0.6" d="M205.395 65.4945C205.395 65.4945 202.658 66.4596 208.133 100.094H231.405C231.015 90.6213 231.001 84.776 235.512 65.3302C232.251 64.6571 228.945 64.2202 225.621 64.0229C222.101 63.7762 218.567 63.7762 215.046 64.0229C210.549 64.4404 205.395 65.4945 205.395 65.4945Z" fill="white"/>
<path d="M229.568 112.305L224.023 110.635L226.337 115.987C226.337 115.987 229.999 116.343 231.32 114.358L229.568 112.305Z" fill="#E58A7B"/>
<path d="M219.531 112.401L221.708 116.774L226.335 116.001L224.021 110.648L219.531 112.401Z" fill="#E58A7B"/>
<path d="M244.233 229.165H238.504L236.656 215.887H242.392L244.233 229.165Z" fill="#E58A7B"/>
<path d="M218.183 229.165H212.454L212.07 215.887H217.799L218.183 229.165Z" fill="#E58A7B"/>
<path d="M212.07 215.893L212.269 222.73H218.005L217.806 215.893H212.07Z" fill="#CF6F64"/>
<path d="M242.392 215.893H236.656L237.608 222.73H243.344L242.392 215.893Z" fill="#CF6F64"/>
<path d="M214.289 100.094C214.289 100.094 217.616 139.451 221.072 161.628C223.858 179.54 236.226 221.409 236.226 221.409H244.043C244.043 221.409 237.602 180.971 236.185 163.229C232.605 118.396 238.882 110.463 231.428 100.066L214.289 100.094Z" fill="#3ED0A3"/>
<path opacity="0.6" d="M214.289 100.094C214.289 100.094 217.616 139.451 221.072 161.628C223.858 179.54 236.226 221.409 236.226 221.409H244.043C244.043 221.409 237.602 180.971 236.185 163.229C232.605 118.396 238.882 110.463 231.428 100.066L214.289 100.094Z" fill="black"/>
<path opacity="0.4" d="M221.394 115.576C221.394 115.576 218.191 125.556 218.239 139.95C218.793 144.817 219.382 149.649 219.984 154.125C221.819 149.95 225.193 137.78 221.394 115.576Z" fill="black"/>
<path d="M208.143 100.094C208.143 100.094 203.618 144.263 203.995 161.744C204.385 179.93 211.052 221.409 211.052 221.409H218.8C218.8 221.409 217.575 181.025 218.259 163.133C219.005 143.66 225.193 100.094 225.193 100.094L208.143 100.094Z" fill="#3ED0A3"/>
<path opacity="0.6" d="M208.143 100.094C208.143 100.094 203.618 144.263 203.995 161.744C204.385 179.93 211.052 221.409 211.052 221.409H218.8C218.8 221.409 217.575 181.025 218.259 163.133C219.005 143.66 225.193 100.094 225.193 100.094L208.143 100.094Z" fill="black"/>
<path fill-rule="evenodd" clip-rule="evenodd" d="M235.089 229.318C235.408 229.562 235.796 229.676 236.184 229.64C236.694 229.626 237.202 229.551 237.697 229.415C237.751 229.403 237.792 229.355 237.799 229.295C237.808 229.236 237.784 229.177 237.738 229.145C237.546 229.002 235.821 227.778 235.137 228.101C234.984 228.178 234.88 228.338 234.863 228.521C234.81 228.812 234.895 229.111 235.089 229.318ZM235.246 228.379C235.3 228.351 235.358 228.338 235.417 228.341C236.102 228.479 236.753 228.774 237.327 229.205C236.314 229.423 235.561 229.385 235.274 229.092C235.145 228.957 235.092 228.756 235.137 228.567C235.151 228.439 235.205 228.379 235.246 228.379Z" fill="#3ED0A3"/>
<path fill-rule="evenodd" clip-rule="evenodd" d="M237.6 229.302C237.62 229.307 237.641 229.307 237.661 229.302C237.684 229.308 237.708 229.308 237.73 229.302C237.773 229.279 237.799 229.234 237.798 229.185C237.798 229.117 237.791 227.46 237.169 226.913C237.016 226.765 236.804 226.697 236.594 226.728C236.37 226.733 236.18 226.892 236.135 227.111C236.012 227.755 237.052 228.994 237.6 229.302ZM236.628 226.974H236.689C236.801 226.973 236.909 227.015 236.991 227.091C237.35 227.621 237.534 228.251 237.518 228.891C236.977 228.46 236.327 227.529 236.402 227.132C236.416 227.07 236.457 226.974 236.628 226.974Z" fill="#3ED0A3"/>
<path fill-rule="evenodd" clip-rule="evenodd" d="M208.73 229.242C209.135 229.529 209.617 229.662 210.099 229.62C210.714 229.601 211.326 229.519 211.927 229.376C211.983 229.367 212.028 229.318 212.036 229.257C212.045 229.193 212.015 229.13 211.961 229.102C211.708 228.961 209.401 227.696 208.717 228.11C208.583 228.189 208.497 228.338 208.491 228.502C208.448 228.777 208.539 229.056 208.73 229.242ZM208.826 228.391C208.906 228.352 208.992 228.335 209.079 228.34C209.91 228.475 210.713 228.763 211.455 229.191C210.188 229.42 209.244 229.361 208.895 229.02C208.774 228.903 208.715 228.728 208.737 228.554C208.738 228.487 208.772 228.425 208.826 228.391Z" fill="#3ED0A3"/>
<path fill-rule="evenodd" clip-rule="evenodd" d="M211.825 229.302H211.879C211.908 229.307 211.936 229.302 211.962 229.288C211.999 229.259 212.02 229.213 212.016 229.165C212.016 229.163 212.016 229.159 212.015 229.154C212 229.003 211.856 227.537 211.161 226.961C210.953 226.781 210.681 226.695 210.408 226.722C210.031 226.763 209.895 226.954 209.895 227.105C209.771 227.755 211.14 228.994 211.825 229.302ZM210.428 226.975H210.511H210.517C210.686 226.977 210.848 227.037 210.976 227.146C211.395 227.646 211.651 228.262 211.708 228.912C211.01 228.501 210.093 227.522 210.155 227.132C210.155 227.132 210.155 227.131 210.155 227.131C210.162 227.094 210.186 226.975 210.428 226.975Z" fill="#3ED0A3"/>
<path d="M211.68 45.4323C211.59 45.4417 211.502 45.4087 211.44 45.3433C210.994 44.8111 210.318 44.5279 209.626 44.5835C209.477 44.6038 209.34 44.4999 209.318 44.3508C209.301 44.2048 209.4 44.0705 209.544 44.0428C210.417 43.9697 211.271 44.3182 211.844 44.9805C211.945 45.0884 211.945 45.2559 211.844 45.3638C211.797 45.4023 211.74 45.4261 211.68 45.4323Z" fill="#263238"/>
<path d="M210.489 48.834C210.232 49.9364 209.824 50.9982 209.277 51.9894C209.798 52.2603 210.412 52.2879 210.954 52.0647L210.489 48.834Z" fill="#DF5753"/>
<path d="M210.789 47.9651C210.851 48.4237 210.666 48.8275 210.365 48.8686C210.064 48.9096 209.77 48.5743 209.681 48.1225C209.592 47.6708 209.804 47.2532 210.105 47.2122C210.406 47.1711 210.742 47.5339 210.789 47.9651Z" fill="#263238"/>
<path d="M210.264 47.28L209.121 47.1226C209.121 47.1226 209.806 47.8618 210.264 47.28Z" fill="#263238"/>
<path d="M238.121 228.5H244.561C244.79 228.495 244.985 228.664 245.013 228.89L245.752 233.99C245.78 234.251 245.695 234.511 245.518 234.706C245.342 234.9 245.091 235.011 244.828 235.009C242.583 234.968 241.502 234.838 238.668 234.838C236.93 234.838 234.383 235.016 231.974 235.016C229.565 235.016 229.442 232.634 230.441 232.422C234.938 231.457 235.643 230.122 237.162 228.849C237.431 228.623 237.77 228.5 238.121 228.5Z" fill="#263238"/>
<path d="M212.257 228.5H218.698C218.926 228.497 219.122 228.664 219.156 228.89L219.889 233.989C219.916 234.249 219.831 234.509 219.657 234.703C219.482 234.898 219.233 235.009 218.971 235.009C216.726 234.968 215.645 234.838 212.811 234.838C211.066 234.838 207.465 235.016 205.056 235.016C202.647 235.016 202.524 232.634 203.523 232.422C208.013 231.457 209.786 230.122 211.298 228.849C211.568 228.625 211.907 228.502 212.257 228.5Z" fill="#263238"/>
<path opacity="0.28" d="M204.727 70.9297V71.0666C204.795 74.8928 205.322 81.3336 206.91 92.1619L210.154 79.4513L204.727 70.9297Z" fill="#3ED0A3"/>
<path d="M209.332 72.8941C208.689 76.1453 207.963 79.3281 207.101 82.5246C206.238 85.721 205.362 88.897 204.226 92.1071L203.781 93.305L203.295 94.5096C203.186 94.795 203.055 95.0718 202.905 95.3378C202.717 95.6923 202.487 96.0231 202.22 96.3235C201.6 97.0065 200.786 97.4841 199.886 97.6924C199.134 97.864 198.353 97.864 197.6 97.6924C197.027 97.5742 196.469 97.3904 195.937 97.1448C195.055 96.7313 194.219 96.2242 193.446 95.6322C192.062 94.5671 190.775 93.383 189.599 92.0934C189.01 91.4774 188.463 90.834 187.929 90.1838C187.395 89.5335 186.882 88.8833 186.375 88.1646L188.545 86.2412C190.846 88.3197 193.332 90.1846 195.971 91.8128C196.541 92.1441 197.142 92.4192 197.765 92.6342C198.292 92.8327 198.764 92.7779 198.579 92.7437C198.468 92.7589 198.362 92.8012 198.271 92.8669L198.367 92.5726L198.73 91.4911L199.072 90.3754C199.962 87.3706 200.721 84.2152 201.474 81.1214L203.617 71.7031L209.332 72.8941Z" fill="#E58A7B"/>
<path d="M186.553 88.4514L183.418 84.016L187.682 83.6875C187.682 83.6875 190.092 86.4664 189.243 88.6978L186.553 88.4514Z" fill="#E58A7B"/>
<path d="M186.293 82.8725L187.196 82.3181L187.614 80.2168L188.305 81.0792L188.819 86.0142L186.293 82.8725Z" fill="#E58A7B"/>
<path d="M225.953 44.2143C226.418 49.8817 226.733 52.2705 224.31 55.5697C220.662 60.5184 213.591 59.8476 211.449 54.4266C209.512 49.5463 209.081 41.0932 214.269 38.0678C216.585 36.6985 219.445 36.6274 221.827 37.88C224.208 39.1327 225.769 41.5301 225.953 44.2143Z" fill="#E58A7B"/>
<path d="M213.282 37.4315C210.889 38.4377 209.568 41.0214 210.154 43.5507C210.154 43.5507 214.61 41.6273 214.788 48.7663C214.918 53.9204 211.365 60.8746 211.365 60.8746C211.365 60.8746 219.627 62.5857 231.516 58.9444C236.574 57.3975 234.295 27.0344 213.282 37.4315Z" fill="#263238"/>
<path d="M212.856 40.5859C212.048 42.5298 212.261 46.3765 215.443 45.9659C218.626 45.5552 217.695 42.345 217.695 42.345L212.856 40.5859Z" fill="#263238"/>
<path d="M216.402 48.2667C216.435 49.3671 216.034 50.4365 215.286 51.2442C214.287 52.2982 213.034 51.5864 212.692 50.2448C212.377 49.047 212.521 47.0415 213.828 46.4803C214.414 46.2414 215.08 46.3148 215.6 46.6754C216.119 47.0359 216.421 47.6347 216.402 48.2667Z" fill="#E58A7B"/>
<path d="M244.626 221.663H235.694L234.742 218.549L244.934 218.788L244.626 221.663Z" fill="#3ED0A3"/>
<path d="M228.609 101.353H229.225C229.356 101.353 229.451 101.292 229.438 101.21L229.143 98.4719C229.143 98.3966 229.027 98.3281 228.897 98.3281H228.267C228.144 98.3281 228.048 98.3966 228.055 98.4719L228.349 101.21C228.377 101.306 228.486 101.353 228.609 101.353Z" fill="#3ED0A3"/>
<path d="M213.304 101.353H213.933C214.057 101.353 214.152 101.292 214.146 101.21L213.851 98.4719C213.851 98.3966 213.728 98.3281 213.605 98.3281H212.975C212.845 98.3281 212.749 98.3966 212.763 98.4719L213.057 101.21C213.064 101.306 213.174 101.353 213.304 101.353Z" fill="#3ED0A3"/>
<path d="M219.395 221.663H210.456L209.812 219.001L219.73 218.549L219.395 221.663Z" fill="#3ED0A3"/>
<path d="M231.775 98.7316L232.823 100.785C232.905 100.949 232.713 101.114 232.446 101.114H208.004C207.792 101.114 207.62 101.011 207.607 100.881L207.395 98.8274C207.395 98.6836 207.566 98.5604 207.792 98.5604H231.371C231.527 98.5397 231.682 98.6052 231.775 98.7316Z" fill="#3ED0A3"/>
<path opacity="0.1" d="M231.775 98.7316L232.823 100.785C232.905 100.949 232.713 101.114 232.446 101.114H208.004C207.792 101.114 207.62 101.011 207.607 100.881L207.395 98.8274C207.395 98.6836 207.566 98.5604 207.792 98.5604H231.371C231.527 98.5397 231.682 98.6052 231.775 98.7316Z" fill="black"/>
<path opacity="0.6" d="M228.609 101.353H229.225C229.356 101.353 229.451 101.292 229.438 101.21L229.143 98.4719C229.143 98.3966 229.027 98.3281 228.897 98.3281H228.267C228.144 98.3281 228.048 98.3966 228.055 98.4719L228.349 101.21C228.377 101.306 228.486 101.353 228.609 101.353Z" fill="black"/>
<path opacity="0.6" d="M213.304 101.353H213.933C214.057 101.353 214.152 101.292 214.146 101.21L213.851 98.4719C213.851 98.3966 213.728 98.3281 213.605 98.3281H212.975C212.845 98.3281 212.749 98.3966 212.763 98.4719L213.057 101.21C213.064 101.306 213.174 101.353 213.304 101.353Z" fill="black"/>
<path d="M205.398 65.4942C203.036 66.0965 201.387 75.8228 201.387 75.8228L210.504 82.0173C210.504 82.0173 214.166 70.4361 212.325 67.8146C210.429 65.1314 208.847 64.6181 205.398 65.4942Z" fill="#3ED0A3"/>
<path opacity="0.6" d="M205.398 65.4942C203.036 66.0965 201.387 75.8228 201.387 75.8228L210.504 82.0173C210.504 82.0173 214.166 70.4361 212.325 67.8146C210.429 65.1314 208.847 64.6181 205.398 65.4942Z" fill="white"/>
<path d="M76.0767 190.904C76.0801 190.881 76.0801 190.858 76.0767 190.835C76.2684 189.733 76.4326 188.625 76.5695 187.502C78.5066 189.658 80.1904 190.206 81.395 190.206C81.5227 190.213 81.6507 190.213 81.7783 190.206C84.1397 189.973 86.1315 187.659 87.1172 184.045C87.1566 183.901 87.1317 183.746 87.0487 183.621C86.9639 183.491 86.8351 183.397 86.686 183.354C83.2984 182.427 79.6738 183.068 76.8091 185.1C76.8912 184.045 76.9391 182.991 76.9528 181.93C77.3348 181.997 77.7218 182.032 78.1096 182.033C82.011 182.033 84.4272 178.563 84.5436 178.392C84.6322 178.258 84.6476 178.088 84.5847 177.94C84.5205 177.779 84.3913 177.652 84.2287 177.591C81.792 176.674 79.8139 176.592 78.356 177.358C77.4281 177.863 76.7154 178.687 76.3505 179.679C74.2575 175.119 70.0545 171.881 65.1115 171.02C64.9703 170.987 64.8216 171.023 64.7117 171.118C64.6019 171.213 64.5444 171.355 64.5571 171.499C64.8035 175.038 65.4606 179.357 68.3764 181.424C69.5431 182.223 70.9327 182.633 72.3464 182.594C73.5554 182.568 74.7551 182.377 75.9124 182.026C75.8517 184.548 75.623 187.064 75.228 189.555C73.6058 187.714 69.4784 183.621 63.8453 182.211C63.7185 182.172 63.5808 182.19 63.4687 182.261C63.3567 182.332 63.2816 182.449 63.2635 182.581C62.8459 185.627 63.5715 188.098 65.3511 189.727C66.8295 191.096 68.9514 191.78 71.5113 191.78C72.6472 191.77 73.7794 191.65 74.8926 191.424C74.5093 193.512 74.037 195.531 73.5236 197.502C71.7509 196.092 66.6242 192.526 61.7371 194.011C61.6062 194.054 61.5026 194.155 61.4565 194.285C61.4092 194.424 61.4241 194.576 61.4975 194.703C63.3045 198.07 65.1115 199.939 67.1718 200.589C67.7081 200.756 68.2665 200.841 68.8282 200.842C70.2815 200.782 71.6953 200.351 72.935 199.59C72.1615 202.177 71.3128 204.586 70.4778 206.736C67.6409 204.086 63.6545 203.056 59.889 203.998C59.7706 204.024 59.6679 204.097 59.6046 204.2C59.5413 204.303 59.5229 204.428 59.5536 204.545C60.135 206.795 61.7432 208.639 63.8932 209.521C64.6679 209.842 65.4982 210.007 66.3367 210.007C67.4459 209.999 68.5345 209.707 69.499 209.159C68.4074 211.825 67.1759 214.432 65.8097 216.968C65.6891 217.23 65.7868 217.541 66.0356 217.687C66.1251 217.746 66.2298 217.776 66.3367 217.776C66.4991 217.781 66.6513 217.697 66.7337 217.557C68.3903 214.451 69.8644 211.252 71.1485 207.975C71.175 207.922 71.1957 207.867 71.2101 207.81C71.4657 207.167 71.7189 206.503 71.9699 205.818C73.6195 207.721 75.625 208.775 77.6373 208.775C77.8563 208.775 78.0685 208.775 78.2875 208.775C80.5737 208.547 82.4669 206.901 83.0104 204.669C83.0499 204.417 82.9228 204.168 82.6955 204.053C79.6344 202.337 75.9363 202.191 72.7502 203.662C73.2909 202.095 73.818 200.432 74.3039 198.707C74.3472 198.637 74.3709 198.556 74.3724 198.474C74.5024 197.988 74.6393 197.502 74.7625 197.002C76.7406 199.152 78.5682 200.206 80.3273 200.206C82.4628 200.206 84.4341 198.625 86.33 195.415C86.4358 195.168 86.3527 194.882 86.1316 194.73C82.1548 191.992 77.3977 193.861 75.2759 194.956C75.577 193.674 75.8417 192.369 76.0699 191.041L76.0767 190.904Z" fill="#3ED0A3"/>
<path opacity="0.3" d="M76.0767 190.904C76.0801 190.881 76.0801 190.858 76.0767 190.835C76.2684 189.733 76.4326 188.625 76.5695 187.502C78.5066 189.658 80.1904 190.206 81.395 190.206C81.5227 190.213 81.6507 190.213 81.7783 190.206C84.1397 189.973 86.1315 187.659 87.1172 184.045C87.1566 183.901 87.1317 183.746 87.0487 183.621C86.9639 183.491 86.8351 183.397 86.686 183.354C83.2984 182.427 79.6738 183.068 76.8091 185.1C76.8912 184.045 76.9391 182.991 76.9528 181.93C77.3348 181.997 77.7218 182.032 78.1096 182.033C82.011 182.033 84.4272 178.563 84.5436 178.392C84.6322 178.258 84.6476 178.088 84.5847 177.94C84.5205 177.779 84.3913 177.652 84.2287 177.591C81.792 176.674 79.8139 176.592 78.356 177.358C77.4281 177.863 76.7154 178.687 76.3505 179.679C74.2575 175.119 70.0545 171.881 65.1115 171.02C64.9703 170.987 64.8216 171.023 64.7117 171.118C64.6019 171.213 64.5444 171.355 64.5571 171.499C64.8035 175.038 65.4606 179.357 68.3764 181.424C69.5431 182.223 70.9327 182.633 72.3464 182.594C73.5554 182.568 74.7551 182.377 75.9124 182.026C75.8517 184.548 75.623 187.064 75.228 189.555C73.6058 187.714 69.4784 183.621 63.8453 182.211C63.7185 182.172 63.5808 182.19 63.4687 182.261C63.3567 182.332 63.2816 182.449 63.2635 182.581C62.8459 185.627 63.5715 188.098 65.3511 189.727C66.8295 191.096 68.9514 191.78 71.5113 191.78C72.6472 191.77 73.7794 191.65 74.8926 191.424C74.5093 193.512 74.037 195.531 73.5236 197.502C71.7509 196.092 66.6242 192.526 61.7371 194.011C61.6062 194.054 61.5026 194.155 61.4565 194.285C61.4092 194.424 61.4241 194.576 61.4975 194.703C63.3045 198.07 65.1115 199.939 67.1718 200.589C67.7081 200.756 68.2665 200.841 68.8282 200.842C70.2815 200.782 71.6953 200.351 72.935 199.59C72.1615 202.177 71.3128 204.586 70.4778 206.736C67.6409 204.086 63.6545 203.056 59.889 203.998C59.7706 204.024 59.6679 204.097 59.6046 204.2C59.5413 204.303 59.5229 204.428 59.5536 204.545C60.135 206.795 61.7432 208.639 63.8932 209.521C64.6679 209.842 65.4982 210.007 66.3367 210.007C67.4459 209.999 68.5345 209.707 69.499 209.159C68.4074 211.825 67.1759 214.432 65.8097 216.968C65.6891 217.23 65.7868 217.541 66.0356 217.687C66.1251 217.746 66.2298 217.776 66.3367 217.776C66.4991 217.781 66.6513 217.697 66.7337 217.557C68.3903 214.451 69.8644 211.252 71.1485 207.975C71.175 207.922 71.1957 207.867 71.2101 207.81C71.4657 207.167 71.7189 206.503 71.9699 205.818C73.6195 207.721 75.625 208.775 77.6373 208.775C77.8563 208.775 78.0685 208.775 78.2875 208.775C80.5737 208.547 82.4669 206.901 83.0104 204.669C83.0499 204.417 82.9228 204.168 82.6955 204.053C79.6344 202.337 75.9363 202.191 72.7502 203.662C73.2909 202.095 73.818 200.432 74.3039 198.707C74.3472 198.637 74.3709 198.556 74.3724 198.474C74.5024 197.988 74.6393 197.502 74.7625 197.002C76.7406 199.152 78.5682 200.206 80.3273 200.206C82.4628 200.206 84.4341 198.625 86.33 195.415C86.4358 195.168 86.3527 194.882 86.1316 194.73C82.1548 191.992 77.3977 193.861 75.2759 194.956C75.577 193.674 75.8417 192.369 76.0699 191.041L76.0767 190.904Z" fill="black"/>
<path d="M51.2589 204.777C51.9968 205.009 52.7647 205.131 53.5382 205.14C55.5246 205.131 57.4106 204.265 58.7135 202.766C60.0165 201.266 60.6098 199.278 60.3418 197.31C60.294 197.089 60.0866 196.941 59.8626 196.967C56.0312 197.391 52.5933 199.515 50.4991 202.751C49.6367 200.383 48.829 197.864 48.1514 195.256C49.2575 195.91 50.5087 196.28 51.7928 196.331C52.3205 196.333 52.8451 196.249 53.3465 196.084C56.0091 195.201 57.8366 192.026 59.4177 188.72C59.4756 188.598 59.4756 188.457 59.4177 188.336C59.3705 188.215 59.269 188.124 59.144 188.09C53.9351 186.605 49.1986 191.697 47.7065 193.518C47.1838 191.31 46.7817 189.075 46.5018 186.824C47.6052 187.035 48.7255 187.145 49.8489 187.152C52.5867 187.152 54.7497 186.427 56.2144 184.996C57.953 183.305 58.5485 180.773 57.9461 177.679C57.9226 177.558 57.8486 177.453 57.7427 177.39C57.6367 177.328 57.509 177.313 57.3917 177.35C51.8338 178.829 47.9118 182.963 46.3102 184.921C46.3102 184.517 46.2417 184.113 46.2143 183.709C46.2061 183.608 46.1652 183.512 46.098 183.435C45.817 181.899 44.8557 180.573 43.4833 179.828C41.9638 179.075 39.9583 179.185 37.5353 180.15C37.3901 180.206 37.2774 180.324 37.2273 180.472C37.1775 180.615 37.2005 180.773 37.2889 180.896C37.4121 181.06 40.0267 184.496 43.9419 184.496C44.3647 184.495 44.7863 184.454 45.2013 184.373C45.2835 185.487 45.3998 186.602 45.5504 187.72C42.5645 185.69 38.835 185.082 35.3587 186.057C35.2218 186.091 35.1052 186.18 35.037 186.303C34.9676 186.421 34.9502 186.562 34.9891 186.693C36.2006 190.376 38.3566 192.696 40.766 192.895C40.8754 192.902 40.9851 192.902 41.0945 192.895C42.3266 192.895 44.0309 192.334 45.8858 190.061C46.3393 192.622 46.9334 195.156 47.6654 197.652C45.4614 196.57 40.4785 194.709 36.577 197.542C36.4657 197.613 36.3871 197.725 36.3588 197.853C36.3306 197.982 36.3549 198.116 36.4264 198.227C38.5278 201.464 40.5948 203.018 42.7441 203.018H42.7988C44.5853 203.018 46.3855 201.902 48.2746 199.678C49.048 202.115 49.8968 204.428 50.7661 206.577C48.6031 205.16 46.0706 205.386 42.9494 207.262C42.8126 207.349 42.7202 207.491 42.6962 207.652C42.6792 207.804 42.7412 207.954 42.8604 208.049C43.0179 208.172 45.6805 210.178 48.6579 210.178C49.8011 210.189 50.9215 209.857 51.8749 209.226C53.5594 213.142 55.5007 216.942 57.686 220.602C57.775 220.742 57.9309 220.825 58.0967 220.821C58.2069 220.822 58.3146 220.789 58.4047 220.725C58.6549 220.572 58.7369 220.247 58.5895 219.993C55.7245 215.135 53.2724 210.045 51.2589 204.777Z" fill="#3ED0A3"/>
<path opacity="0.5" d="M51.2589 204.777C51.9968 205.009 52.7647 205.131 53.5382 205.14C55.5246 205.131 57.4106 204.265 58.7135 202.766C60.0165 201.266 60.6098 199.278 60.3418 197.31C60.294 197.089 60.0866 196.941 59.8626 196.967C56.0312 197.391 52.5933 199.515 50.4991 202.751C49.6367 200.383 48.829 197.864 48.1514 195.256C49.2575 195.91 50.5087 196.28 51.7928 196.331C52.3205 196.333 52.8451 196.249 53.3465 196.084C56.0091 195.201 57.8366 192.026 59.4177 188.72C59.4756 188.598 59.4756 188.457 59.4177 188.336C59.3705 188.215 59.269 188.124 59.144 188.09C53.9351 186.605 49.1986 191.697 47.7065 193.518C47.1838 191.31 46.7817 189.075 46.5018 186.824C47.6052 187.035 48.7255 187.145 49.8489 187.152C52.5867 187.152 54.7497 186.427 56.2144 184.996C57.953 183.305 58.5485 180.773 57.9461 177.679C57.9226 177.558 57.8486 177.453 57.7427 177.39C57.6367 177.328 57.509 177.313 57.3917 177.35C51.8338 178.829 47.9118 182.963 46.3102 184.921C46.3102 184.517 46.2417 184.113 46.2143 183.709C46.2061 183.608 46.1652 183.512 46.098 183.435C45.817 181.899 44.8557 180.573 43.4833 179.828C41.9638 179.075 39.9583 179.185 37.5353 180.15C37.3901 180.206 37.2774 180.324 37.2273 180.472C37.1775 180.615 37.2005 180.773 37.2889 180.896C37.4121 181.06 40.0267 184.496 43.9419 184.496C44.3647 184.495 44.7863 184.454 45.2013 184.373C45.2835 185.487 45.3998 186.602 45.5504 187.72C42.5645 185.69 38.835 185.082 35.3587 186.057C35.2218 186.091 35.1052 186.18 35.037 186.303C34.9676 186.421 34.9502 186.562 34.9891 186.693C36.2006 190.376 38.3566 192.696 40.766 192.895C40.8754 192.902 40.9851 192.902 41.0945 192.895C42.3266 192.895 44.0309 192.334 45.8858 190.061C46.3393 192.622 46.9334 195.156 47.6654 197.652C45.4614 196.57 40.4785 194.709 36.577 197.542C36.4657 197.613 36.3871 197.725 36.3588 197.853C36.3306 197.982 36.3549 198.116 36.4264 198.227C38.5278 201.464 40.5948 203.018 42.7441 203.018H42.7988C44.5853 203.018 46.3855 201.902 48.2746 199.678C49.048 202.115 49.8968 204.428 50.7661 206.577C48.6031 205.16 46.0706 205.386 42.9494 207.262C42.8126 207.349 42.7202 207.491 42.6962 207.652C42.6792 207.804 42.7412 207.954 42.8604 208.049C43.0179 208.172 45.6805 210.178 48.6579 210.178C49.8011 210.189 50.9215 209.857 51.8749 209.226C53.5594 213.142 55.5007 216.942 57.686 220.602C57.775 220.742 57.9309 220.825 58.0967 220.821C58.2069 220.822 58.3146 220.789 58.4047 220.725C58.6549 220.572 58.7369 220.247 58.5895 219.993C55.7245 215.135 53.2724 210.045 51.2589 204.777Z" fill="white"/>
<path d="M70.083 232.253H53.7789L52.5469 215.395H71.315L70.083 232.253Z" fill="#263238"/>
<rect x="51.3281" y="214.258" width="21.198" height="2.85423" fill="#263238"/>
<rect x="20.4727" y="132.545" width="47.2078" height="99.7066" rx="6.99" fill="#3ED0A3"/>
<rect opacity="0.6" x="20.4727" y="132.545" width="47.2078" height="99.7066" rx="6.99" fill="black"/>
<rect x="18.1797" y="132.545" width="47.2078" height="99.7066" rx="6.99" fill="#3ED0A3"/>
<rect opacity="0.3" x="18.1797" y="132.545" width="47.2078" height="99.7066" rx="6.99" fill="black"/>
<rect x="18.1797" y="138.035" width="47.2078" height="85.6818" fill="#FAFAFA"/>
<rect opacity="0.18" x="18.207" y="137.855" width="47.2078" height="85.6818" fill="#3ED0A3"/>
<path opacity="0.4" d="M35.3116 138.041L20 223.723H35.161L50.4794 138.041H35.3116Z" fill="white"/>
<path opacity="0.4" d="M54.1748 138.041L38.8633 223.723H46.4472L61.7588 138.041H54.1748Z" fill="white"/>
<path d="M43.9176 227.685C43.9176 228.861 42.9645 229.814 41.7889 229.814C40.6132 229.814 39.6602 228.861 39.6602 227.685C39.6602 226.51 40.6132 225.557 41.7889 225.557C42.9645 225.557 43.9176 226.51 43.9176 227.685Z" fill="#3ED0A3"/>
<path opacity="0.5" d="M43.9176 227.685C43.9176 228.861 42.9645 229.814 41.7889 229.814C40.6132 229.814 39.6602 228.861 39.6602 227.685C39.6602 226.51 40.6132 225.557 41.7889 225.557C42.9645 225.557 43.9176 226.51 43.9176 227.685Z" fill="black"/>
<circle cx="47.3662" cy="135.071" r="0.752916" fill="#3ED0A3"/>
<path d="M44.2926 135.824H36.2021C35.7863 135.824 35.4492 135.487 35.4492 135.071C35.4529 134.657 35.7879 134.322 36.2021 134.318H44.2857C44.7 134.322 45.0349 134.657 45.0386 135.071C45.0386 135.484 44.7057 135.82 44.2926 135.824Z" fill="#3ED0A3"/>
<circle opacity="0.5" cx="47.3662" cy="135.071" r="0.752916" fill="black"/>
<path opacity="0.5" d="M44.2926 135.824H36.2021C35.7863 135.824 35.4492 135.487 35.4492 135.071C35.4529 134.657 35.7879 134.322 36.2021 134.318H44.2857C44.7 134.322 45.0349 134.657 45.0386 135.071C45.0386 135.484 44.7057 135.82 44.2926 135.824Z" fill="black"/>
</svg>
