<svg width="34" height="34" viewBox="0 0 34 34" fill="none" xmlns="http://www.w3.org/2000/svg">
<rect width="34" height="34" rx="17" fill="white"/>
<path d="M11.9766 19.0097L11.3059 21.5134L8.85472 21.5652C8.12218 20.2065 7.70667 18.6519 7.70667 17C7.70667 15.4025 8.09516 13.8961 8.78379 12.5697H8.78432L10.9666 12.9698L11.9225 15.1389C11.7224 15.7222 11.6134 16.3484 11.6134 17C11.6135 17.7071 11.7416 18.3847 11.9766 19.0097Z" fill="#FBBB00"/>
<path d="M26.805 15.2003C26.9156 15.7831 26.9733 16.3849 26.9733 17C26.9733 17.6897 26.9008 18.3624 26.7627 19.0113C26.2937 21.2196 25.0684 23.1478 23.3709 24.5124L23.3704 24.5119L20.6217 24.3716L20.2327 21.9432C21.359 21.2826 22.2393 20.2489 22.703 19.0113H17.5518V15.2003H22.7781H26.805Z" fill="#518EF8"/>
<path d="M23.3704 24.5119L23.3709 24.5124C21.72 25.8393 19.6229 26.6333 17.34 26.6333C13.6714 26.6333 10.4818 24.5828 8.85474 21.5652L11.9766 19.0098C12.7901 21.181 14.8846 22.7265 17.34 22.7265C18.3954 22.7265 19.3842 22.4412 20.2326 21.9432L23.3704 24.5119Z" fill="#28B446"/>
<path d="M23.4889 9.58441L20.3682 12.1394C19.4901 11.5905 18.4521 11.2734 17.34 11.2734C14.829 11.2734 12.6954 12.8899 11.9226 15.1389L8.78434 12.5697H8.78381C10.3871 9.47856 13.6169 7.36664 17.34 7.36664C19.6774 7.36664 21.8206 8.19924 23.4889 9.58441Z" fill="#F14336"/>
</svg>
