<svg width="320" height="38" viewBox="0 0 320 38" fill="none" xmlns="http://www.w3.org/2000/svg">
<path fill-rule="evenodd" clip-rule="evenodd" d="M25.2574 28.7842C22.7252 30.0562 19.8711 30.6923 16.6952 30.6923C13.5192 30.6923 10.6652 30.0562 8.133 28.7842C5.60082 27.5121 3.61228 25.7528 2.16737 23.5064C0.722456 21.2599 0 18.7293 0 15.9145C0 13.0997 0.722456 10.5691 2.16737 8.32262C3.61228 6.07618 5.60082 4.31692 8.133 3.04484C10.6652 1.77276 13.5192 1.13672 16.6952 1.13672C19.8711 1.13672 22.7252 1.77276 25.2574 3.04484C27.7895 4.31692 29.7781 6.07618 31.223 8.32262C32.6679 10.5691 33.3904 13.0997 33.3904 15.9145C33.3904 18.7293 32.6679 21.2599 31.223 23.5064C29.7781 25.7528 27.7895 27.5121 25.2574 28.7842ZM12.575 23.0192C13.8054 23.6958 15.1787 24.0342 16.6952 24.0342C18.2116 24.0342 19.585 23.6958 20.8153 23.0192C22.0457 22.3426 23.0185 21.3885 23.7338 20.157C24.4491 18.9255 24.8067 17.5114 24.8067 15.9145C24.8067 14.3176 24.4491 12.9035 23.7338 11.672C23.0185 10.4405 22.0457 9.48643 20.8153 8.8098C19.585 8.13316 18.2116 7.79484 16.6952 7.79484C15.1787 7.79484 13.8054 8.13316 12.575 8.8098C11.3447 9.48643 10.3719 10.4405 9.6566 11.672C8.9413 12.9035 8.58365 14.3176 8.58365 15.9145C8.58365 17.5114 8.9413 18.9255 9.6566 20.157C10.3719 21.3885 11.3447 22.3426 12.575 23.0192Z" fill="#3ED0A3"/>
<path d="M46.1586 30.1239V19.4872C46.1586 17.755 46.5806 16.4558 47.4247 15.5897C48.2688 14.7236 49.3918 14.2906 50.7938 14.2906C53.3403 14.2906 54.6135 15.7927 54.6135 18.797V30.1239H62.7679V17.5385C62.7679 14.2635 61.8881 11.8141 60.1285 10.1902C58.3688 8.56624 56.0441 7.75427 53.1543 7.75427C51.6664 7.75427 50.2931 7.9911 49.0341 8.46474C47.7752 8.93839 46.6879 9.62179 45.7723 10.515V8.11966H38.0042V30.1239H46.1586Z" fill="#3ED0A3"/>
<path fill-rule="evenodd" clip-rule="evenodd" d="M90.8577 26.9167C88.5974 29.2984 85.2927 30.4893 80.9436 30.4893C78.2255 30.4893 75.8364 30.0021 73.7763 29.0278C71.7162 28.0534 70.1211 26.7001 68.9909 24.9679C67.8607 23.2358 67.2957 21.2735 67.2957 19.0812C67.2957 16.916 67.8464 14.974 68.948 13.2553C70.0496 11.5367 71.5732 10.1902 73.5188 9.21581C75.4644 8.24145 77.6532 7.75427 80.0853 7.75427C82.4029 7.75427 84.5059 8.20762 86.3943 9.11432C88.2827 10.021 89.7776 11.3337 90.8792 13.0523C91.9808 14.771 92.5316 16.8077 92.5316 19.1624C92.5316 19.2165 92.4886 19.8526 92.4028 21.0705H75.493C75.8364 22.2073 76.5016 23.0801 77.4887 23.6891C78.4758 24.2981 79.7133 24.6026 81.2011 24.6026C82.317 24.6026 83.2827 24.4537 84.0981 24.156C84.9136 23.8583 85.7362 23.3711 86.5659 22.6944L90.8577 26.9167ZM76.9737 14.25C76.1297 14.9266 75.5932 15.8469 75.3643 17.0107H84.8921C84.6632 15.8469 84.1268 14.9266 83.2827 14.25C82.4386 13.5734 81.3871 13.235 80.1282 13.235C78.8693 13.235 77.8178 13.5734 76.9737 14.25Z" fill="#3ED0A3"/>
<path fill-rule="evenodd" clip-rule="evenodd" d="M240.127 19.4872V30.1239H231.973V0H240.127V10.1496C241.014 9.36467 242.059 8.76923 243.26 8.36325C244.462 7.95726 245.75 7.75427 247.123 7.75427C250.013 7.75427 252.337 8.56624 254.097 10.1902C255.857 11.8141 256.737 14.2635 256.737 17.5385V30.1239H248.582V18.797C248.582 15.7927 247.309 14.2906 244.762 14.2906C243.36 14.2906 242.237 14.7236 241.393 15.5897C240.549 16.4558 240.127 17.755 240.127 19.4872ZM115.085 29.4541C113.082 30.2796 110.65 30.6923 107.789 30.6923C105.357 30.6923 102.997 30.4081 100.708 29.8397C98.4186 29.2714 96.5588 28.5135 95.1282 27.5662L97.9179 21.6389C99.2626 22.4779 100.822 23.1546 102.596 23.6688C104.37 24.183 106.115 24.4402 107.832 24.4402C111.094 24.4402 112.725 23.6688 112.725 22.1261C112.725 21.3141 112.26 20.7119 111.33 20.3194C110.4 19.927 108.905 19.5142 106.845 19.0812C104.584 18.6211 102.696 18.1271 101.18 17.5994C99.6632 17.0716 98.3613 16.2258 97.2741 15.062C96.1868 13.8981 95.6432 12.3283 95.6432 10.3526C95.6432 8.62037 96.1439 7.05734 97.1453 5.66346C98.1468 4.26959 99.6417 3.16667 101.63 2.3547C103.619 1.54273 106.058 1.13675 108.948 1.13675C110.922 1.13675 112.868 1.34651 114.785 1.76603C116.702 2.18554 118.39 2.80128 119.849 3.61325L117.231 9.5812C114.37 8.11966 111.594 7.38889 108.905 7.38889C107.217 7.38889 105.986 7.62571 105.214 8.09936C104.441 8.57301 104.055 9.18875 104.055 9.94658C104.055 10.7044 104.513 11.2728 105.429 11.6517C106.344 12.0306 107.818 12.4231 109.849 12.8291C112.138 13.2892 114.034 13.7831 115.536 14.3109C117.038 14.8387 118.34 15.6777 119.441 16.828C120.543 17.9783 121.094 19.5413 121.094 21.5171C121.094 23.2222 120.593 24.765 119.592 26.1453C118.59 27.5256 117.088 28.6286 115.085 29.4541ZM138.69 30.1645C137.703 30.3811 136.652 30.4893 135.536 30.4893C132.503 30.4893 130.171 29.7856 128.54 28.3782C126.909 26.9708 126.094 24.8732 126.094 22.0855V14.6966H122.703V8.93162H126.094V3.20727H134.248V8.93162H139.57V14.6966H134.248V22.0043C134.248 22.7892 134.47 23.4049 134.913 23.8515C135.357 24.2981 135.951 24.5214 136.694 24.5214C137.639 24.5214 138.468 24.2913 139.184 23.8312L141.201 29.2308C140.514 29.6368 139.677 29.948 138.69 30.1645ZM162.638 29.0278C160.636 30.0021 158.375 30.4893 155.857 30.4893C153.368 30.4893 151.122 30.0021 149.119 29.0278C147.116 28.0534 145.55 26.7001 144.42 24.9679C143.29 23.2358 142.724 21.2735 142.724 19.0812C142.724 16.916 143.29 14.9672 144.42 13.235C145.55 11.5028 147.109 10.1563 149.098 9.19551C151.086 8.23469 153.34 7.75427 155.857 7.75427C158.375 7.75427 160.636 8.23469 162.638 9.19551C164.641 10.1563 166.201 11.4961 167.317 13.2147C168.432 14.9334 168.99 16.8889 168.99 19.0812C168.99 21.2735 168.432 23.2358 167.317 24.9679C166.201 26.7001 164.641 28.0534 162.638 29.0278ZM152.338 22.9583C153.254 23.8921 154.427 24.359 155.857 24.359C157.288 24.359 158.461 23.8921 159.377 22.9583C160.292 22.0246 160.75 20.7322 160.75 19.0812C160.75 17.4573 160.292 16.1852 159.377 15.265C158.461 14.3447 157.288 13.8846 155.857 13.8846C154.427 13.8846 153.254 14.3447 152.338 15.265C151.423 16.1852 150.965 17.4573 150.965 19.0812C150.965 20.7322 151.423 22.0246 152.338 22.9583ZM181.458 38V28.1752C183.06 29.718 185.221 30.4893 187.939 30.4893C190.056 30.4893 191.98 30.0224 193.711 29.0887C195.442 28.1549 196.816 26.8287 197.831 25.11C198.847 23.3914 199.355 21.3953 199.355 19.1218C199.355 16.8483 198.847 14.8522 197.831 13.1335C196.816 11.4149 195.442 10.0887 193.711 9.15491C191.98 8.22115 190.056 7.75427 187.939 7.75427C184.877 7.75427 182.588 8.60684 181.072 10.312V8.11966H173.304V38H181.458ZM186.222 24.359C184.791 24.359 183.618 23.8921 182.703 22.9583C181.787 22.0246 181.329 20.7457 181.329 19.1218C181.329 17.4979 181.787 16.219 182.703 15.2853C183.618 14.3515 184.791 13.8846 186.222 13.8846C187.653 13.8846 188.826 14.3515 189.741 15.2853C190.657 16.219 191.115 17.4979 191.115 19.1218C191.115 20.7457 190.657 22.0246 189.741 22.9583C188.826 23.8921 187.653 24.359 186.222 24.359ZM214.612 30.6923C217.474 30.6923 219.906 30.2796 221.909 29.4541C223.911 28.6286 225.413 27.5256 226.415 26.1453C227.416 24.765 227.917 23.2222 227.917 21.5171C227.917 19.5413 227.366 17.9783 226.265 16.828C225.163 15.6777 223.861 14.8387 222.359 14.3109C220.857 13.7831 218.961 13.2892 216.673 12.8291C214.641 12.4231 213.168 12.0306 212.252 11.6517C211.336 11.2728 210.879 10.7044 210.879 9.94658C210.879 9.18875 211.265 8.57301 212.037 8.09936C212.81 7.62571 214.04 7.38889 215.728 7.38889C218.418 7.38889 221.193 8.11966 224.054 9.5812L226.672 3.61325C225.213 2.80128 223.525 2.18554 221.608 1.76603C219.691 1.34651 217.745 1.13675 215.771 1.13675C212.881 1.13675 210.442 1.54273 208.454 2.3547C206.465 3.16667 204.97 4.26959 203.969 5.66346C202.967 7.05734 202.467 8.62037 202.467 10.3526C202.467 12.3283 203.01 13.8981 204.097 15.062C205.185 16.2258 206.487 17.0716 208.003 17.5994C209.519 18.1271 211.408 18.6211 213.668 19.0812C215.728 19.5142 217.223 19.927 218.153 20.3194C219.083 20.7119 219.548 21.3141 219.548 22.1261C219.548 23.6688 217.917 24.4402 214.655 24.4402C212.939 24.4402 211.193 24.183 209.419 23.6688C207.645 23.1546 206.086 22.4779 204.741 21.6389L201.952 27.5662C203.382 28.5135 205.242 29.2714 207.531 29.8397C209.82 30.4081 212.18 30.6923 214.612 30.6923ZM281.179 29.0278C279.176 30.0021 276.915 30.4893 274.397 30.4893C271.908 30.4893 269.662 30.0021 267.659 29.0278C265.656 28.0534 264.09 26.7001 262.96 24.9679C261.83 23.2358 261.264 21.2735 261.264 19.0812C261.264 16.916 261.83 14.9672 262.96 13.235C264.09 11.5028 265.649 10.1563 267.638 9.19551C269.626 8.23469 271.88 7.75427 274.397 7.75427C276.915 7.75427 279.176 8.23469 281.179 9.19551C283.181 10.1563 284.741 11.4961 285.857 13.2147C286.972 14.9334 287.53 16.8889 287.53 19.0812C287.53 21.2735 286.972 23.2358 285.857 24.9679C284.741 26.7001 283.181 28.0534 281.179 29.0278ZM270.878 22.9583C271.794 23.8921 272.967 24.359 274.397 24.359C275.828 24.359 277.001 23.8921 277.917 22.9583C278.832 22.0246 279.29 20.7322 279.29 19.0812C279.29 17.4573 278.832 16.1852 277.917 15.265C277.001 14.3447 275.828 13.8846 274.397 13.8846C272.967 13.8846 271.794 14.3447 270.878 15.265C269.963 16.1852 269.505 17.4573 269.505 19.0812C269.505 20.7322 269.963 22.0246 270.878 22.9583ZM299.998 38V28.1752C301.6 29.718 303.761 30.4893 306.479 30.4893C308.596 30.4893 310.52 30.0224 312.251 29.0887C313.982 28.1549 315.356 26.8287 316.371 25.11C317.387 23.3914 317.895 21.3953 317.895 19.1218C317.895 16.8483 317.387 14.8522 316.371 13.1335C315.356 11.4149 313.982 10.0887 312.251 9.15491C310.52 8.22115 308.596 7.75427 306.479 7.75427C303.417 7.75427 301.128 8.60684 299.612 10.312V8.11966H291.844V38H299.998ZM304.762 24.359C303.331 24.359 302.158 23.8921 301.243 22.9583C300.327 22.0246 299.869 20.7457 299.869 19.1218C299.869 17.4979 300.327 16.219 301.243 15.2853C302.158 14.3515 303.331 13.8846 304.762 13.8846C306.193 13.8846 307.366 14.3515 308.281 15.2853C309.197 16.219 309.655 17.4979 309.655 19.1218C309.655 20.7457 309.197 22.0246 308.281 22.9583C307.366 23.8921 306.193 24.359 304.762 24.359Z" fill="#16284D"/>
</svg>
